<?xml version="1.0" encoding="UTF-8"?>
<svg version="1.1" xmlns="http://www.w3.org/2000/svg" width="75" height="75">
<path d="M0 0 C2.67077788 1.80277507 3.68851881 2.95047405 4.60131836 6.02612305 C5.17861133 10.33231149 5.0070487 14.55866712 4.87890625 18.89453125 C4.84348976 20.31556404 4.84348976 20.31556404 4.80735779 21.76530457 C4.7309889 24.78119903 4.64684967 27.79681923 4.5625 30.8125 C4.5092525 32.86131485 4.45651229 34.91014296 4.40429688 36.95898438 C4.27541007 41.97282884 4.13955559 46.98644161 4 52 C5.10730469 51.98453125 6.21460938 51.9690625 7.35546875 51.953125 C12.3229712 52.01701571 12.3229712 52.01701571 15 54 C17.5293807 58.20954694 17.71808145 62.20424175 17 67 C15.20606332 69.87029869 14.01736724 71.49131638 11 73 C5.77456353 73.2843628 0.54811679 73.31374419 -4.68432617 73.35009766 C-6.43120656 73.36664961 -8.17801943 73.39392995 -9.92456055 73.43212891 C-12.44615726 73.48698252 -14.96616775 73.50878326 -17.48828125 73.5234375 C-18.26553055 73.54610687 -19.04277985 73.56877625 -19.84358215 73.59213257 C-23.9087889 73.57634644 -25.76157778 73.1880653 -28.99267578 70.6394043 C-31.89415448 66.824288 -31.64173007 64.16890997 -31.4296875 59.53515625 C-31 57 -31 57 -29.1875 54.375 C-24.44424951 51.39352826 -22.19093862 52 -16 52 C-16 43.75 -16 35.5 -16 27 C-16.66 27.33 -17.32 27.66 -18 28 C-21.99390436 28.53252058 -23.51741242 28.35389756 -26.8125 25.9375 C-29.4489533 22.39711986 -30.15762308 20.41344632 -30 16 C-28.36576482 13.72374386 -27.20377773 12.64357373 -25 11 C-24.13890625 10.34644531 -23.2778125 9.69289063 -22.390625 9.01953125 C-8.34167326 -1.40327214 -8.34167326 -1.40327214 0 0 Z " fill="#79C7F5" transform="translate(45,1)"/>
<path d="M0 0 C2.67077788 1.80277507 3.68851881 2.95047405 4.60131836 6.02612305 C5.17861133 10.33231149 5.0070487 14.55866712 4.87890625 18.89453125 C4.84348976 20.31556404 4.84348976 20.31556404 4.80735779 21.76530457 C4.7309889 24.78119903 4.64684967 27.79681923 4.5625 30.8125 C4.5092525 32.86131485 4.45651229 34.91014296 4.40429688 36.95898438 C4.27541007 41.97282884 4.13955559 46.98644161 4 52 C5.10730469 51.98453125 6.21460938 51.9690625 7.35546875 51.953125 C12.3229712 52.01701571 12.3229712 52.01701571 15 54 C17.5293807 58.20954694 17.71808145 62.20424175 17 67 C15.20606332 69.87029869 14.01736724 71.49131638 11 73 C5.77456353 73.2843628 0.54811679 73.31374419 -4.68432617 73.35009766 C-6.43120656 73.36664961 -8.17801943 73.39392995 -9.92456055 73.43212891 C-12.44615726 73.48698252 -14.96616775 73.50878326 -17.48828125 73.5234375 C-18.26553055 73.54610687 -19.04277985 73.56877625 -19.84358215 73.59213257 C-23.9087889 73.57634644 -25.76157778 73.1880653 -28.99267578 70.6394043 C-31.89415448 66.824288 -31.64173007 64.16890997 -31.4296875 59.53515625 C-31 57 -31 57 -29.1875 54.375 C-24.44424951 51.39352826 -22.19093862 52 -16 52 C-16 43.75 -16 35.5 -16 27 C-16.66 27.33 -17.32 27.66 -18 28 C-21.99390436 28.53252058 -23.51741242 28.35389756 -26.8125 25.9375 C-29.4489533 22.39711986 -30.15762308 20.41344632 -30 16 C-28.36576482 13.72374386 -27.20377773 12.64357373 -25 11 C-24.13890625 10.34644531 -23.2778125 9.69289063 -22.390625 9.01953125 C-8.34167326 -1.40327214 -8.34167326 -1.40327214 0 0 Z M-13.4375 6.6875 C-16.62446554 9.16479972 -19.75845257 11.49926938 -23.1875 13.625 C-26.30554122 15.74386091 -26.30554122 15.74386091 -26.5625 19.1875 C-26.2455704 22.12422973 -26.2455704 22.12422973 -24 24 C-19.35899787 24.34377794 -17.23929615 24.11964808 -13 22 C-13.33 32.89 -13.66 43.78 -14 55 C-19.94 55.495 -19.94 55.495 -26 56 C-28.48038907 59.7205836 -28.46337203 61.59796571 -28 66 C-26.51012137 68.33815899 -26.51012137 68.33815899 -24 70 C-21.36616162 70.38638905 -19.15909445 70.53896243 -16.53125 70.49609375 C-15.813927 70.49754898 -15.096604 70.49900421 -14.35754395 70.50050354 C-12.84460376 70.49884741 -11.33164624 70.4873179 -9.81884766 70.46655273 C-7.50740766 70.43759281 -5.19826225 70.44594843 -2.88671875 70.45898438 C-1.41405139 70.45274647 0.05860875 70.4443551 1.53125 70.43359375 C2.21989136 70.43652939 2.90853271 70.43946503 3.61804199 70.44248962 C6.67681847 70.38256725 8.75336227 70.13890183 11.44018555 68.62573242 C13.22199093 67.07142669 13.22199093 67.07142669 13.42578125 64.5546875 C13.36970703 63.22824219 13.36970703 63.22824219 13.3125 61.875 C13.28800781 60.98554687 13.26351562 60.09609375 13.23828125 59.1796875 C13.23279487 57.02410265 13.23279487 57.02410265 12 56 C10.14712498 55.92773498 8.29166122 55.9161878 6.4375 55.9375 C5.42558594 55.94652344 4.41367187 55.95554688 3.37109375 55.96484375 C2.58863281 55.97644531 1.80617188 55.98804688 1 56 C1.00666183 55.36550934 1.01332367 54.73101868 1.02018738 54.07730103 C1.08640091 47.49168957 1.13174223 40.90617219 1.16479492 34.3203125 C1.17990988 31.86031252 1.20040227 29.40033959 1.22631836 26.94042969 C1.2625823 23.41073948 1.27969914 19.88140456 1.29296875 16.3515625 C1.30845261 15.24632233 1.32393646 14.14108215 1.33988953 13.00234985 C1.34011612 11.98144257 1.34034271 10.96053528 1.34057617 9.90869141 C1.34723801 9.00712311 1.35389984 8.10555481 1.36076355 7.17666626 C1.18218559 6.09921646 1.18218559 6.09921646 1 5 C-4.62999345 1.24667103 -8.39218642 2.72594028 -13.4375 6.6875 Z " fill="#313334" transform="translate(45,1)"/>
<path d="M0 0 C2.67077788 1.80277507 3.68851881 2.95047405 4.60131836 6.02612305 C5.17861133 10.33231149 5.0070487 14.55866712 4.87890625 18.89453125 C4.84348976 20.31556404 4.84348976 20.31556404 4.80735779 21.76530457 C4.7309889 24.78119903 4.64684967 27.79681923 4.5625 30.8125 C4.5092525 32.86131485 4.45651229 34.91014296 4.40429688 36.95898438 C4.27541007 41.97282884 4.13955559 46.98644161 4 52 C6.31 52 8.62 52 11 52 C11 52.33 11 52.66 11 53 C8.36 53 5.72 53 3 53 C3 37.82 3 22.64 3 7 C2.34 7 1.68 7 1 7 C0.5875 6.505 0.175 6.01 -0.25 5.5 C-1.97095221 3.74318136 -1.97095221 3.74318136 -4.765625 3.671875 C-8.73257578 4.07431928 -10.38857099 5.3001967 -13.5 7.75 C-16.4989502 10.08206223 -19.36807537 12.27999914 -22.6875 14.125 C-25.36665916 15.85048882 -25.36665916 15.85048882 -25.375 19.25 C-25.25125 20.1575 -25.1275 21.065 -25 22 C-23.02 22.66 -21.04 23.32 -19 24 C-20.32 24.33 -21.64 24.66 -23 25 C-23 25.66 -23 26.32 -23 27 C-21.35 27 -19.7 27 -18 27 C-18 27.33 -18 27.66 -18 28 C-21.95679828 28.46009282 -23.54625856 28.33274372 -26.8125 25.9375 C-29.4489533 22.39711986 -30.15762308 20.41344632 -30 16 C-28.36576482 13.72374386 -27.20377773 12.64357373 -25 11 C-24.13890625 10.34644531 -23.2778125 9.69289063 -22.390625 9.01953125 C-8.34167326 -1.40327214 -8.34167326 -1.40327214 0 0 Z " fill="#424446" transform="translate(45,1)"/>
<path d="M0 0 C0.66 0 1.32 0 2 0 C2 15.18 2 30.36 2 46 C5.3 46 8.6 46 12 46 C12.99 46.99 13.98 47.98 15 49 C15 49.99 15 50.98 15 52 C14.01 52 13.02 52 12 52 C11.67 51.34 11.34 50.68 11 50 C7.37 49.67 3.74 49.34 0 49 C0 32.83 0 16.66 0 0 Z " fill="#090B0E" transform="translate(46,8)"/>
<path d="M0 0 C0 10.89 0 21.78 0 33 C-3.63 33 -7.26 33 -11 33 C-10.67 32.34 -10.34 31.68 -10 31 C-7.36 31 -4.72 31 -2 31 C-2 22.09 -2 13.18 -2 4 C-2.99 4.495 -2.99 4.495 -4 5 C-5.99960012 5.039992 -8.00047242 5.04346799 -10 5 C-10 4.34 -10 3.68 -10 3 C-3.375 0 -3.375 0 0 0 Z " fill="#05090B" transform="translate(32,23)"/>
<path d="M0 0 C0.66 0.33 1.32 0.66 2 1 C-1.86687867 6.49503811 -5.8105492 10.26512639 -12 13 C-9.66918786 7.27891565 -4.77149584 3.68086822 0 0 Z " fill="#2A2E30" transform="translate(32,3)"/>
<path d="M0 0 C0.63019694 8.19256018 0.63019694 8.19256018 -2 11.5625 C-2.99 12.2740625 -2.99 12.2740625 -4 13 C-4 9 -4 5 -4 1 C-1 0 -1 0 0 0 Z " fill="#394044" transform="translate(62,59)"/>
<path d="M0 0 C1.58025005 0.21192095 3.16398461 0.39923371 4.75 0.5625 C5.54921875 0.64628906 6.3484375 0.73007812 7.171875 0.81640625 C8.07679687 0.90728516 8.07679687 0.90728516 9 1 C9 1.33 9 1.66 9 2 C7.73542969 2.07347656 7.73542969 2.07347656 6.4453125 2.1484375 C5.34960938 2.22320312 4.25390625 2.29796875 3.125 2.375 C1.48917969 2.47941406 1.48917969 2.47941406 -0.1796875 2.5859375 C-3.13046474 2.73253491 -3.13046474 2.73253491 -5 5 C-5 4.34 -5 3.68 -5 3 C-5.66 3 -6.32 3 -7 3 C-6.67 2.01 -6.34 1.02 -6 0 C-3.44763882 -1.27618059 -2.69758035 -0.74231977 0 0 Z " fill="#232A2D" transform="translate(22,55)"/>
<path d="M0 0 C0.66 0.33 1.32 0.66 2 1 C1.54625 1.7425 1.0925 2.485 0.625 3.25 C-0.68640796 5.46930578 -1.88280803 7.67967822 -3 10 C-3.33 9.01 -3.66 8.02 -4 7 C-4.66 8.32 -5.32 9.64 -6 11 C-5.63076923 4.6 -5.63076923 4.6 -2.4375 1.5625 C-1.633125 1.046875 -0.82875 0.53125 0 0 Z " fill="#4D5357" transform="translate(21,11)"/>
<path d="M0 0 C0 2.31 0 4.62 0 7 C-0.33 5.68 -0.66 4.36 -1 3 C-1.99 3.495 -1.99 3.495 -3 4 C-4.99960012 4.039992 -7.00047242 4.04346799 -9 4 C-9 3.34 -9 2.68 -9 2 C-3.375 0 -3.375 0 0 0 Z " fill="#030406" transform="translate(31,24)"/>
</svg>
