<?xml version="1.0" encoding="UTF-8"?>
<svg version="1.1" xmlns="http://www.w3.org/2000/svg" width="75" height="75">
<path d="M0 0 C6.36640468 3.55217864 9.85520012 9.44986699 12.27514648 16.18505859 C13.40994924 20.56446428 13.30541129 24.93995044 13.25 29.4375 C13.26160156 30.37529297 13.27320313 31.31308594 13.28515625 32.27929688 C13.24594124 41.68436347 11.31847065 48.93554033 4.76171875 55.8359375 C0.4059808 59.67764426 -4.2886616 61.10571373 -10.078125 60.84765625 C-15.77004038 59.88089963 -20.56971701 56.97467105 -24.03125 52.3203125 C-30.94380479 40.81584631 -30.91937675 29.34511892 -28.125 16.5 C-25.85067453 9.33274498 -22.49340618 3.40664501 -15.8125 -0.375 C-10.02756365 -2.13989583 -5.53101639 -2.37043559 0 0 Z M-9.125 14.5 C-13.2129397 19.47662224 -13.29859835 23.49546185 -13.375 29.875 C-13.40078125 31.16148438 -13.4265625 32.44796875 -13.453125 33.7734375 C-13.10644031 37.71078501 -12.11337957 40.11975473 -10.125 43.5 C-8.805 43.5 -7.485 43.5 -6.125 43.5 C-3.34128579 38.78683308 -2.65900782 34.87864867 -2.75 29.5 C-2.73839844 28.81421875 -2.72679687 28.1284375 -2.71484375 27.421875 C-2.74166673 22.73679364 -3.5712791 19.4324904 -6.125 15.5 C-7.115 15.17 -8.105 14.84 -9.125 14.5 Z " fill="#F9B8C7" transform="translate(60.125,6.5)"/>
<path d="M0 0 C2.22167969 1.41503906 2.22167969 1.41503906 4 4 C4.55248306 7.26976151 4.46485756 10.48914451 4.390625 13.796875 C4.38496521 14.74564514 4.37930542 15.69441528 4.37347412 16.67193604 C4.35110609 19.69847336 4.30090858 22.72382129 4.25 25.75 C4.22993557 27.8033683 4.2116847 29.85675519 4.1953125 31.91015625 C4.15123981 36.94056156 4.08220891 41.97007921 4 47 C4.61875 47.103125 5.2375 47.20625 5.875 47.3125 C8 48 8 48 10 51 C10.58915051 54.87156047 10.39254089 56.44834275 8.1015625 59.66796875 C3.72088245 62.96175463 0.26655158 62.63344927 -5.0625 62.4375 C-6.40924805 62.42879883 -6.40924805 62.42879883 -7.78320312 62.41992188 C-15.3260799 62.2797197 -15.3260799 62.2797197 -19 60 C-20.5635348 56.87293041 -20.39958487 53.42017557 -20 50 C-19.34 49.01 -18.68 48.02 -18 47 C-15.03 46.505 -15.03 46.505 -12 46 C-12 38.41 -12 30.82 -12 23 C-13.98 23.33 -15.96 23.66 -18 24 C-21.50485144 21.56184248 -22.7546254 19.85063195 -23.9375 15.75 C-22.23529081 8.94116322 -16.05353377 5.05882201 -10.421875 1.26171875 C-6.60223649 -0.7281897 -4.27975444 -0.47552827 0 0 Z " fill="#FBB9C9" transform="translate(24,5)"/>
<path d="M0 0 C2.22167969 1.41503906 2.22167969 1.41503906 4 4 C4.55248306 7.26976151 4.46485756 10.48914451 4.390625 13.796875 C4.38496521 14.74564514 4.37930542 15.69441528 4.37347412 16.67193604 C4.35110609 19.69847336 4.30090858 22.72382129 4.25 25.75 C4.22993557 27.8033683 4.2116847 29.85675519 4.1953125 31.91015625 C4.15123981 36.94056156 4.08220891 41.97007921 4 47 C4.61875 47.103125 5.2375 47.20625 5.875 47.3125 C8 48 8 48 10 51 C10.58915051 54.87156047 10.39254089 56.44834275 8.1015625 59.66796875 C3.72088245 62.96175463 0.26655158 62.63344927 -5.0625 62.4375 C-6.40924805 62.42879883 -6.40924805 62.42879883 -7.78320312 62.41992188 C-15.3260799 62.2797197 -15.3260799 62.2797197 -19 60 C-20.5635348 56.87293041 -20.39958487 53.42017557 -20 50 C-19.34 49.01 -18.68 48.02 -18 47 C-15.03 46.505 -15.03 46.505 -12 46 C-12 38.41 -12 30.82 -12 23 C-13.98 23.33 -15.96 23.66 -18 24 C-21.50485144 21.56184248 -22.7546254 19.85063195 -23.9375 15.75 C-22.23529081 8.94116322 -16.05353377 5.05882201 -10.421875 1.26171875 C-6.60223649 -0.7281897 -4.27975444 -0.47552827 0 0 Z M-12.1875 5.8125 C-13.02667969 6.52019531 -13.86585937 7.22789063 -14.73046875 7.95703125 C-15.47941406 8.63121094 -16.22835938 9.30539063 -17 10 C-17.60070312 10.5053125 -18.20140625 11.010625 -18.8203125 11.53125 C-20.41275144 13.16802613 -20.41275144 13.16802613 -19.6875 16.6875 C-19.460625 17.780625 -19.23375 18.87375 -19 20 C-16.74239143 20.78670551 -16.74239143 20.78670551 -14 21 C-12.35 20.01 -10.7 19.02 -9 18 C-9 28.23 -9 38.46 -9 49 C-11.31 49 -13.62 49 -16 49 C-17.19695276 49.97910585 -17.19695276 49.97910585 -17.1328125 51.8125 C-17.13023438 52.534375 -17.12765625 53.25625 -17.125 54 C-17.12757812 54.721875 -17.13015625 55.44375 -17.1328125 56.1875 C-17.19695276 58.02089415 -17.19695276 58.02089415 -16 59 C-12.52791193 59.25098924 -9.0425938 59.18522096 -5.5625 59.1875 C-4.09200195 59.20586914 -4.09200195 59.20586914 -2.59179688 59.22460938 C-1.18704102 59.22750977 -1.18704102 59.22750977 0.24609375 59.23046875 C1.54051392 59.23663208 1.54051392 59.23663208 2.86108398 59.24291992 C5.21469927 59.200498 5.21469927 59.200498 7 57 C7.58345476 54.04253508 7.58345476 54.04253508 7 51 C6.17910889 50.64494385 5.35821777 50.2898877 4.51245117 49.92407227 C2 48 2 48 1.5296936 46.04953003 C1.35622746 43.40703889 1.33454833 40.80046389 1.36328125 38.15234375 C1.35290329 37.18470596 1.34252533 36.21706818 1.33183289 35.22010803 C1.30208243 32.12554571 1.30553811 29.03217995 1.3125 25.9375 C1.30362345 22.83958523 1.28773052 19.74199317 1.2610321 16.6441803 C1.24605333 14.71555503 1.24235097 12.78680392 1.25080872 10.85813904 C1.24707748 9.98706009 1.24334625 9.11598114 1.23950195 8.21850586 C1.24125931 7.45034042 1.24301666 6.68217499 1.24482727 5.89073181 C1.16414931 3.75718371 1.16414931 3.75718371 -1 2 C-6.10315035 1.3380851 -8.35385207 2.51377969 -12.1875 5.8125 Z " fill="#787274" transform="translate(24,5)"/>
<path d="M0 0 C6.36640468 3.55217864 9.85520012 9.44986699 12.27514648 16.18505859 C13.40994924 20.56446428 13.30541129 24.93995044 13.25 29.4375 C13.26160156 30.37529297 13.27320313 31.31308594 13.28515625 32.27929688 C13.24594124 41.68436347 11.31847065 48.93554033 4.76171875 55.8359375 C0.4059808 59.67764426 -4.2886616 61.10571373 -10.078125 60.84765625 C-15.77004038 59.88089963 -20.56971701 56.97467105 -24.03125 52.3203125 C-30.94380479 40.81584631 -30.91937675 29.34511892 -28.125 16.5 C-25.85067453 9.33274498 -22.49340618 3.40664501 -15.8125 -0.375 C-10.02756365 -2.13989583 -5.53101639 -2.37043559 0 0 Z M-20.75 7.125 C-23.69063103 10.82390695 -24.9114554 14.99020586 -26.125 19.5 C-26.31191406 20.14324219 -26.49882813 20.78648438 -26.69140625 21.44921875 C-28.67324411 30.82277618 -26.95791936 41.27622532 -22.3671875 49.63671875 C-20.09210189 53.04934716 -17.82391752 55.63351123 -14.125 57.5 C-8.92251521 58.49605747 -3.96028223 58.29731528 0.8125 55.875 C5.50075025 52.23921409 7.97579924 48.05326302 9.875 42.5 C10.31295567 38.23784488 10.2452496 33.96998855 10.25 29.6875 C10.28673828 27.96176758 10.28673828 27.96176758 10.32421875 26.20117188 C10.35170544 18.20712604 9.45217308 12.47715235 4.0234375 6.44140625 C3.43820313 5.98636719 2.85296875 5.53132812 2.25 5.0625 C1.65960938 4.58941406 1.06921875 4.11632812 0.4609375 3.62890625 C-6.78153862 -1.52645237 -15.04448992 1.41948992 -20.75 7.125 Z " fill="#423E40" transform="translate(60.125,6.5)"/>
<path d="M0 0 C0.33 0 0.66 0 1 0 C1.33 4.62 1.66 9.24 2 14 C2.33 14 2.66 14 3 14 C3.09796875 14.556875 3.1959375 15.11375 3.296875 15.6875 C4.70064232 22.85155392 6.79073558 28.41354409 11.5625 34 C16.42517999 36.82919563 20.50325551 36.73726826 26 36 C31.26296378 34.27757549 33.32355868 31.7793595 36 27 C37.62230039 23.46040227 38.27775153 20.58408135 38.4140625 16.69921875 C38.45273438 15.72275391 38.49140625 14.74628906 38.53125 13.74023438 C38.5621875 12.73283203 38.593125 11.72542969 38.625 10.6875 C38.66367188 9.66076172 38.70234375 8.63402344 38.7421875 7.57617188 C38.83614897 5.05095735 38.9218154 2.52574408 39 0 C39.33 0 39.66 0 40 0 C40.06058594 1.19238281 40.12117188 2.38476562 40.18359375 3.61328125 C40.26801149 5.17969925 40.35265887 6.74610488 40.4375 8.3125 C40.47681641 9.09818359 40.51613281 9.88386719 40.55664062 10.69335938 C40.59853516 11.45068359 40.64042969 12.20800781 40.68359375 12.98828125 C40.73858032 14.03302612 40.73858032 14.03302612 40.79467773 15.09887695 C40.95581153 17.2216572 40.95581153 17.2216572 42 20 C40.8917408 27.02359266 37.25996123 32.36077954 32 37 C27.16007766 39.81595482 22.55509526 40.94351809 17 40 C10.33246888 37.81453147 6.02439021 33.95303224 2.84375 27.7421875 C-1.22257141 18.47678371 -1.36919272 9.90031658 0 0 Z " fill="#6F6468" transform="translate(31,27)"/>
<path d="M0 0 C2.875 -0.5625 2.875 -0.5625 6 0 C12.14368667 7.47205136 11.68336492 15.82852343 11 25 C9.94401157 28.43676233 8.59587712 31.40412288 6 34 C3.125 34.3125 3.125 34.3125 0 34 C-3.88206421 30.53387124 -4.78939645 25.40015421 -5.2265625 20.41796875 C-5.460823 12.80450243 -4.25741764 6.38612645 0 0 Z M2 2 C-2.0879397 6.97662224 -2.17359835 10.99546185 -2.25 17.375 C-2.27578125 18.66148438 -2.3015625 19.94796875 -2.328125 21.2734375 C-1.98144031 25.21078501 -0.98837957 27.61975473 1 31 C2.32 31 3.64 31 5 31 C7.78371421 26.28683308 8.46599218 22.37864867 8.375 17 C8.38660156 16.31421875 8.39820313 15.6284375 8.41015625 14.921875 C8.38333327 10.23679364 7.5537209 6.9324904 5 3 C4.01 2.67 3.02 2.34 2 2 Z " fill="#545051" transform="translate(49,19)"/>
<path d="M0 0 C0.33 0 0.66 0 1 0 C1 8.91 1 17.82 1 27 C-0.98 27.33 -2.96 27.66 -5 28 C-5 30.64 -5 33.28 -5 36 C1.93 36.33 8.86 36.66 16 37 C16 37.99 16 38.98 16 40 C12.75007554 40.05819424 9.50028565 40.09366116 6.25 40.125 C5.32960938 40.14175781 4.40921875 40.15851563 3.4609375 40.17578125 C2.57148438 40.18222656 1.68203125 40.18867187 0.765625 40.1953125 C-0.45979004 40.21102295 -0.45979004 40.21102295 -1.70996094 40.22705078 C-4.25822419 39.97439781 -5.84119819 39.36134735 -8 38 C-9.5635348 34.87293041 -9.39958487 31.42017557 -9 28 C-8.01 26.515 -8.01 26.515 -7 25 C-4.69 25 -2.38 25 0 25 C0 16.75 0 8.5 0 0 Z " fill="#4B4749" transform="translate(13,27)"/>
<path d="M0 0 C0 14.19 0 28.38 0 43 C1.32 43.33 2.64 43.66 4 44 C6.32579101 47.48868651 6.41865457 48.89718519 6 53 C4.625 55.375 4.625 55.375 3 57 C2.34 57 1.68 57 1 57 C1.33 53.7 1.66 50.4 2 47 C0.7776062 46.55756958 0.7776062 46.55756958 -0.46948242 46.10620117 C-3 44 -3 44 -3.44692993 42.06265259 C-3.5804309 39.46280978 -3.56087745 36.90315324 -3.48828125 34.30078125 C-3.48120651 33.35059616 -3.47413177 32.40041107 -3.46684265 31.4214325 C-3.4388367 28.38432324 -3.37608644 25.34905265 -3.3125 22.3125 C-3.28742516 20.2545839 -3.26461058 18.19663893 -3.24414062 16.13867188 C-3.18898955 11.09173866 -3.10267382 6.04618112 -3 1 C-1 0 -1 0 0 0 Z " fill="#786C6F" transform="translate(28,9)"/>
<path d="M0 0 C0.33 0 0.66 0 1 0 C1.33 4.62 1.66 9.24 2 14 C2.33 14 2.66 14 3 14 C3.09796875 14.556875 3.1959375 15.11375 3.296875 15.6875 C4.69594977 22.8276057 6.66448688 28.50154411 11.6875 33.875 C15.70943859 36.45511155 19.32363941 37.30374187 24 38 C24 38.33 24 38.66 24 39 C19.01295144 39.35480978 15.17080309 39.58540154 10.625 37.3125 C3.13104036 30.71067841 -0.29270197 22.44256267 -0.984375 12.5390625 C-1.01034756 8.31852174 -0.57762298 4.17665847 0 0 Z " fill="#706D6E" transform="translate(31,27)"/>
<path d="M0 0 C0.99 0.66 1.98 1.32 3 2 C3.36076355 3.94888306 3.36076355 3.94888306 3.34057617 6.35791016 C3.34034958 7.25869293 3.34012299 8.15947571 3.33988953 9.08755493 C3.32440567 10.06155243 3.30892181 11.03554993 3.29296875 12.0390625 C3.28872391 13.03505463 3.28447906 14.03104675 3.28010559 15.05722046 C3.2632768 18.24675225 3.22561676 21.43565833 3.1875 24.625 C3.1724586 26.78384506 3.15876925 28.9427 3.14648438 31.1015625 C3.11335967 36.40125612 3.06311896 41.70058337 3 47 C2.67 47 2.34 47 2 47 C1.98018066 45.73816895 1.96036133 44.47633789 1.93994141 43.17626953 C1.86401235 38.50581508 1.77527588 33.8356774 1.68261719 29.16552734 C1.64427479 27.14215334 1.60943129 25.11870994 1.578125 23.09521484 C1.53258831 20.19082797 1.47457591 17.28692106 1.4140625 14.3828125 C1.40251129 13.47443634 1.39096008 12.56606018 1.37905884 11.63015747 C1.35918915 10.78943695 1.33931946 9.94871643 1.31884766 9.08251953 C1.30552399 8.34083527 1.29220032 7.599151 1.2784729 6.83499146 C1.14800271 4.7526636 1.14800271 4.7526636 -1 3 C-3.69802289 2.24241756 -3.69802289 2.24241756 -7 3 C-10.20778955 5.09840719 -13.1119852 7.48421821 -16 10 C-16.66 9.67 -17.32 9.34 -18 9 C-12.63444813 2.10143331 -8.94844372 -0.72164869 0 0 Z " fill="#343133" transform="translate(24,5)"/>
<path d="M0 0 C2.9375 -0.4375 2.9375 -0.4375 6 0 C7.9375 1.8125 7.9375 1.8125 9 4 C8.67 4.99 8.34 5.98 8 7 C6.68 5.68 5.36 4.36 4 3 C0.77613367 3.71451307 0.77613367 3.71451307 -0.625 6.6875 C-2.93624875 12.44747071 -2.75373544 18.87735355 -3 25 C-5.54292289 22.45707711 -5.297619 21.46429802 -5.3125 17.9375 C-5.19754732 11.20834723 -3.73810464 5.60715696 0 0 Z " fill="#4D4648" transform="translate(49,19)"/>
<path d="M0 0 C0.99 0 1.98 0 3 0 C3.81498562 1.6029053 4.62689927 3.20737278 5.4375 4.8125 C5.88996094 5.70582031 6.34242187 6.59914063 6.80859375 7.51953125 C9.27287388 12.65008168 9.18337921 16.98706818 9.1875 22.5625 C9.19974609 23.43841797 9.21199219 24.31433594 9.22460938 25.21679688 C9.22750977 26.47266602 9.22750977 26.47266602 9.23046875 27.75390625 C9.23457764 28.52033447 9.23868652 29.2867627 9.24291992 30.07641602 C9 32 9 32 7 34 C6.96132812 32.13408203 6.96132812 32.13408203 6.921875 30.23046875 C6.57928124 18.97914704 5.14261038 10.12379352 0 0 Z " fill="#3F3D3E" transform="translate(64,12)"/>
<path d="M0 0 C0.66 0.33 1.32 0.66 2 1 C1.505 1.680625 1.01 2.36125 0.5 3.0625 C-1.30365111 6.59465009 -1.23021353 9.08636991 -1 13 C-0.34 13 0.32 13 1 13 C1 13.99 1 14.98 1 16 C1.99 16.33 2.98 16.66 4 17 C-1.4 16.52 -1.4 16.52 -3.875 14.375 C-5.4841389 10.97792899 -5.52149375 8.71564293 -5 5 C-2.5 2.0625 -2.5 2.0625 0 0 Z " fill="#676263" transform="translate(6,12)"/>
<path d="M0 0 C6.27308929 -0.44807781 10.77307092 0.33133382 16 4 C16.99 5.485 16.99 5.485 18 7 C17.01 7.33 16.02 7.66 15 8 C14.113125 7.38125 13.22625 6.7625 12.3125 6.125 C8.26025533 3.52544681 5.73870009 3.3268069 1 3 C0.67 2.01 0.34 1.02 0 0 Z " fill="#676062" transform="translate(48,5)"/>
<path d="M0 0 C0.79921875 0.01804687 1.5984375 0.03609375 2.421875 0.0546875 C3.02515625 0.07789063 3.6284375 0.10109375 4.25 0.125 C4.25 0.455 4.25 0.785 4.25 1.125 C3.25419922 1.36283203 3.25419922 1.36283203 2.23828125 1.60546875 C-3.52234088 3.12761854 -6.97400736 4.46794241 -10.75 9.125 C-11.74 8.795 -12.73 8.465 -13.75 8.125 C-9.63227292 2.86345984 -7.06144799 -0.20768965 0 0 Z " fill="#585455" transform="translate(49.75,5.875)"/>
<path d="M0 0 C2.31289806 1.15644903 4.60213585 2.32724775 6.875 3.5625 C9.98467949 4.99295257 12.61772053 5.59734768 16 6 C16 6.33 16 6.66 16 7 C6.33012448 7.68797533 6.33012448 7.68797533 2.375 5.1875 C1.59125 4.465625 0.8075 3.74375 0 3 C0 2.01 0 1.02 0 0 Z " fill="#484445" transform="translate(39,59)"/>
<path d="M0 0 C0.99 0 1.98 0 3 0 C3.86375896 1.61992165 4.71575854 3.24611861 5.5625 4.875 C6.03816406 5.77992187 6.51382813 6.68484375 7.00390625 7.6171875 C7.33261719 8.40351563 7.66132812 9.18984375 8 10 C7.67 10.66 7.34 11.32 7 12 C4.47297764 10.73648882 4.14893413 9.63999253 2.9375 7.125 C2.59589844 6.42632812 2.25429687 5.72765625 1.90234375 5.0078125 C1 3 1 3 0 0 Z " fill="#484445" transform="translate(64,12)"/>
<path d="M0 0 C0.66 0 1.32 0 2 0 C2.33 2.31 2.66 4.62 3 7 C2.67 7 2.34 7 2 7 C1.67 10.3 1.34 13.6 1 17 C0.67 17 0.34 17 0 17 C-0.19386492 14.35448944 -0.38038267 11.70882217 -0.5625 9.0625 C-0.61857422 8.30775391 -0.67464844 7.55300781 -0.73242188 6.77539062 C-0.86176157 4.85254042 -0.93516912 2.92610452 -1 1 C-0.67 0.67 -0.34 0.34 0 0 Z " fill="#868182" transform="translate(57,25)"/>
<path d="M0 0 C1.32 0.33 2.64 0.66 4 1 C3.34 1 2.68 1 2 1 C1.67 3.97 1.34 6.94 1 10 C0.01 10.33 -0.98 10.66 -2 11 C-2.25 3.375 -2.25 3.375 0 0 Z " fill="#736E70" transform="translate(6,52)"/>
<path d="M0 0 C2.375 0.1875 2.375 0.1875 5 1 C6.3125 3.5625 6.3125 3.5625 7 6 C6.01 6 5.02 6 4 6 C1.8125 3 1.8125 3 0 0 Z " fill="#504B4D" transform="translate(51,19)"/>
<path d="M0 0 C0.66 0.99 1.32 1.98 2 3 C1.25 6.125 1.25 6.125 0 9 C-0.99 9.495 -0.99 9.495 -2 10 C-1.125 2.25 -1.125 2.25 0 0 Z " fill="#5B5859" transform="translate(57,42)"/>
<path d="M0 0 C0.33 1.32 0.66 2.64 1 4 C-1.31 4.33 -3.62 4.66 -6 5 C-6 4.34 -6 3.68 -6 3 C-4.02 2.01 -2.04 1.02 0 0 Z " fill="#3A3638" transform="translate(13,23)"/>
<path d="M0 0 C0.66 0 1.32 0 2 0 C2 0.66 2 1.32 2 2 C2.66 2 3.32 2 4 2 C4 2.99 4 3.98 4 5 C4.99 5.33 5.98 5.66 7 6 C4.03 5.505 4.03 5.505 1 5 C0.67 3.35 0.34 1.7 0 0 Z " fill="#7D797A" transform="translate(3,23)"/>
<path d="M0 0 C1.65 0 3.3 0 5 0 C5.66 1.32 6.32 2.64 7 4 C4.61435923 3.42415568 2.33317216 2.77772405 0 2 C0 1.34 0 0.68 0 0 Z " fill="#4A4648" transform="translate(26,52)"/>
<path d="M0 0 C0.33 0 0.66 0 1 0 C1.33 3.3 1.66 6.6 2 10 C1.01 9.67 0.02 9.34 -1 9 C-0.67 6.03 -0.34 3.06 0 0 Z " fill="#4E484A" transform="translate(33,41)"/>
<path d="M0 0 C7.50769231 -0.36923077 7.50769231 -0.36923077 10 1.5 C10.495 2.2425 10.495 2.2425 11 3 C10.01 3.33 9.02 3.66 8 4 C7.01 3.34 6.02 2.68 5 2 C3.34450469 1.61500109 1.6777567 1.27206865 0 1 C0 0.67 0 0.34 0 0 Z " fill="#585657" transform="translate(16,5)"/>
<path d="M0 0 C0.33 0 0.66 0 1 0 C3 6.625 3 6.625 3 10 C2.01 9.67 1.02 9.34 0 9 C0 6.03 0 3.06 0 0 Z " fill="#4A4849" transform="translate(5,56)"/>
<path d="M0 0 C1.22589844 0.01353516 1.22589844 0.01353516 2.4765625 0.02734375 C3.41628906 0.04474609 3.41628906 0.04474609 4.375 0.0625 C4.375 0.3925 4.375 0.7225 4.375 1.0625 C2.92036519 1.45159985 1.46108793 1.82338029 0 2.1875 C-1.21816406 2.50074219 -1.21816406 2.50074219 -2.4609375 2.8203125 C-3.17507812 2.90023438 -3.88921875 2.98015625 -4.625 3.0625 C-5.285 2.4025 -5.945 1.7425 -6.625 1.0625 C-4.21954362 -0.14022819 -2.67503047 -0.03821472 0 0 Z " fill="#474344" transform="translate(49.625,5.9375)"/>
</svg>
