<?xml version="1.0" encoding="UTF-8"?>
<svg version="1.1" xmlns="http://www.w3.org/2000/svg" width="75" height="75">
<path d="M0 0 C4.48328749 3.87625183 7.41509957 7.40631764 8.35546875 13.3984375 C8.52284267 22.43662921 5.00474953 28.75720636 -1.046875 35.27734375 C-4.32707448 38.63706322 -7.62930226 41.9688326 -10.98046875 45.2578125 C-12.31496606 46.58998084 -13.64861279 47.92300343 -14.98046875 49.2578125 C-14.07425781 49.15082031 -13.16804688 49.04382812 -12.234375 48.93359375 C-4.83876373 48.20577169 1.25796357 47.86863962 8.01953125 51.2578125 C9.01953125 52.2578125 9.01953125 52.2578125 9.33203125 56.0703125 C9.29268785 59.20654375 9.16560153 60.05435746 7.26953125 62.6953125 C1.45844286 66.73079055 -6.20256196 65.48055655 -12.99682617 65.49804688 C-15.27495063 65.50773587 -17.55216575 65.53877407 -19.83007812 65.5703125 C-21.29296344 65.57684525 -22.75585515 65.58209465 -24.21875 65.5859375 C-24.8919075 65.5982843 -25.565065 65.6106311 -26.25862122 65.62335205 C-31.27503973 65.6000923 -34.61857184 64.57357582 -38.98046875 62.2578125 C-40.98046875 59.2578125 -40.98046875 59.2578125 -41.04296875 56.0703125 C-38.9848699 48.68536957 -32.98866691 44.14333594 -27.30859375 39.32421875 C-24.27933947 36.63550144 -21.40960776 33.80557836 -18.54296875 30.9453125 C-18.01034424 30.41711914 -17.47771973 29.88892578 -16.92895508 29.34472656 C-13.51372238 25.91676904 -11.83719361 24.09600596 -11.73046875 19.2578125 C-11.7046875 18.5565625 -11.67890625 17.8553125 -11.65234375 17.1328125 C-11.760625 16.5140625 -11.86890625 15.8953125 -11.98046875 15.2578125 C-14.82237156 12.98644911 -14.82237156 12.98644911 -18.16796875 13.1328125 C-22.27747612 14.34545402 -23.15173636 15.24369577 -25.91796875 18.3203125 C-29.38366168 22.09676932 -29.38366168 22.09676932 -32.1953125 22.85546875 C-34.35546875 22.8828125 -34.35546875 22.8828125 -37.98046875 22.2578125 C-40.48235493 19.75592632 -40.82686887 18.79060977 -40.98046875 15.2578125 C-37.96389664 6.83867905 -33.38892931 2.11310753 -25.41796875 -1.7265625 C-17.62853431 -4.97216018 -7.33531725 -4.2877477 0 0 Z " fill="#FCDF6D" transform="translate(51.98046875,5.7421875)"/>
<path d="M0 0 C0 3 0 3 -2.38671875 5.72729492 C-3.47931119 6.81941176 -4.5801754 7.90329204 -5.6875 8.98046875 C-6.26459717 9.55332108 -6.84169434 10.1261734 -7.4362793 10.71638489 C-9.28394376 12.54723565 -11.14175807 14.36739185 -13 16.1875 C-14.25328593 17.42574262 -15.50589901 18.66466668 -16.7578125 19.90429688 C-19.83078528 22.94416468 -22.91290242 25.97448016 -26 29 C-26 24.37542422 -23.12364896 22.21078939 -20 19 C-18.15375456 17.33017357 -16.26553483 15.71964627 -14.3671875 14.109375 C-9.35568954 9.64368375 -4.70938145 4.78002218 0 0 Z " fill="#F7EBB6" transform="translate(39,31)"/>
</svg>
