<?xml version="1.0" encoding="UTF-8"?>
<svg version="1.1" xmlns="http://www.w3.org/2000/svg" width="75" height="75">
<path d="M0 0 C3.03048268 2.8188779 5.6256277 5.75711398 6 10 C6.12375 11.216875 6.2475 12.43375 6.375 13.6875 C6.35539743 18.89198143 3.76010897 22.74154616 1 27 C1.49371094 27.54269531 1.98742188 28.08539063 2.49609375 28.64453125 C3.13675781 29.35996094 3.77742188 30.07539062 4.4375 30.8125 C5.07558594 31.52019531 5.71367188 32.22789063 6.37109375 32.95703125 C9.26858681 36.59105732 9.34591808 40.12894598 9.2734375 44.59375 C8.64036151 50.1648187 5.93556416 54.41531827 1.9375 58.25 C-4.43789909 63.23588903 -12.31896285 65.75050803 -20.390625 65.390625 C-28.01721697 64.24891962 -35.70398748 61.47716446 -42 57 C-42.84375 55.2265625 -42.84375 55.2265625 -43 53 C-41.92578125 50.2734375 -41.92578125 50.2734375 -40.3125 47.375 C-39.79300781 46.41335937 -39.27351563 45.45171875 -38.73828125 44.4609375 C-36.94806007 41.92646706 -35.98049145 40.82563712 -33 40 C-31.34166511 40.96183424 -29.68739429 41.93295833 -28.07421875 42.96875 C-24.3200803 44.83521432 -20.15135492 45.03794657 -16 45 C-15.01 44.505 -15.01 44.505 -14 44 C-14 42.35 -14 40.7 -14 39 C-16.9806207 37.64517241 -19.41482726 36.94375224 -22.6875 36.5 C-26 36 -26 36 -28 34 C-28.265625 31.46875 -28.265625 31.46875 -28.25 28.5 C-28.25515625 27.5203125 -28.2603125 26.540625 -28.265625 25.53125 C-28 23 -28 23 -26 21 C-24.31238142 20.39688385 -22.59985524 19.86149763 -20.875 19.375 C-19.96492188 19.11460938 -19.05484375 18.85421875 -18.1171875 18.5859375 C-17.41851562 18.39257812 -16.71984375 18.19921875 -16 18 C-16 16.68 -16 15.36 -16 14 C-17.41750563 14.11509661 -18.83401169 14.24253658 -20.25 14.375 C-21.03890625 14.44460937 -21.8278125 14.51421875 -22.640625 14.5859375 C-25.10072329 15.0176766 -26.81450341 15.82213236 -29 17 C-31.4375 17.625 -31.4375 17.625 -34 17 C-37.39569081 13.0716518 -39.17698847 9.10803896 -40 4 C-28.60321879 -4.89294292 -12.63696162 -9.08371164 0 0 Z " fill="#F79898" transform="translate(54,6)"/>
<path d="M0 0 C3.03048268 2.8188779 5.6256277 5.75711398 6 10 C6.12375 11.216875 6.2475 12.43375 6.375 13.6875 C6.35539743 18.89198143 3.76010897 22.74154616 1 27 C1.49371094 27.54269531 1.98742188 28.08539063 2.49609375 28.64453125 C3.13675781 29.35996094 3.77742188 30.07539062 4.4375 30.8125 C5.07558594 31.52019531 5.71367188 32.22789063 6.37109375 32.95703125 C9.26858681 36.59105732 9.34591808 40.12894598 9.2734375 44.59375 C8.64036151 50.1648187 5.93556416 54.41531827 1.9375 58.25 C-4.43789909 63.23588903 -12.31896285 65.75050803 -20.390625 65.390625 C-28.01721697 64.24891962 -35.70398748 61.47716446 -42 57 C-42.84375 55.2265625 -42.84375 55.2265625 -43 53 C-41.92578125 50.2734375 -41.92578125 50.2734375 -40.3125 47.375 C-39.79300781 46.41335937 -39.27351563 45.45171875 -38.73828125 44.4609375 C-36.94806007 41.92646706 -35.98049145 40.82563712 -33 40 C-31.34166511 40.96183424 -29.68739429 41.93295833 -28.07421875 42.96875 C-24.3200803 44.83521432 -20.15135492 45.03794657 -16 45 C-15.01 44.505 -15.01 44.505 -14 44 C-14 42.35 -14 40.7 -14 39 C-16.9806207 37.64517241 -19.41482726 36.94375224 -22.6875 36.5 C-26 36 -26 36 -28 34 C-28.265625 31.46875 -28.265625 31.46875 -28.25 28.5 C-28.25515625 27.5203125 -28.2603125 26.540625 -28.265625 25.53125 C-28 23 -28 23 -26 21 C-24.31238142 20.39688385 -22.59985524 19.86149763 -20.875 19.375 C-19.96492188 19.11460938 -19.05484375 18.85421875 -18.1171875 18.5859375 C-17.41851562 18.39257812 -16.71984375 18.19921875 -16 18 C-16 16.68 -16 15.36 -16 14 C-17.41750563 14.11509661 -18.83401169 14.24253658 -20.25 14.375 C-21.03890625 14.44460937 -21.8278125 14.51421875 -22.640625 14.5859375 C-25.10072329 15.0176766 -26.81450341 15.82213236 -29 17 C-31.4375 17.625 -31.4375 17.625 -34 17 C-37.39569081 13.0716518 -39.17698847 9.10803896 -40 4 C-28.60321879 -4.89294292 -12.63696162 -9.08371164 0 0 Z M-36 5 C-34.93976042 9.19506294 -34.93976042 9.19506294 -32.375 12.5625 C-29.0917558 13.16730814 -27.05154697 12.009052 -24.0234375 10.75390625 C-21.16722097 9.68971746 -19.00519708 9.52190047 -16 10 C-13.5625 11.5625 -13.5625 11.5625 -12 14 C-12.25 17.75 -12.25 17.75 -13 21 C-18.445 22.485 -18.445 22.485 -24 24 C-24 26.64 -24 29.28 -24 32 C-17.565 33.485 -17.565 33.485 -11 35 C-9.828125 41.640625 -9.828125 41.640625 -10 44 C-12.04675739 46.85365213 -13.26778903 47.85774187 -16.734375 48.53125 C-23.6270497 48.45982332 -28.10607423 47.62703124 -34 44 C-35.65 47.3 -37.3 50.6 -39 54 C-29.92456449 60.05029034 -21.994171 62.26504696 -11 61 C-4.37869726 58.91236328 0.08640364 55.68102697 4 50 C5.85858852 46.28282296 5.43689228 42.05685692 5 38 C2.48108715 32.55914823 -0.82787062 30.58606469 -6 28 C-6 27.34 -6 26.68 -6 26 C-4.29059971 24.39771617 -2.46698472 22.98705258 -0.62890625 21.53515625 C2.03451423 19.02502615 2.2181745 16.17988334 2.375 12.6875 C2.32085596 8.98765758 1.96862955 7.94866654 -0.0625 4.625 C-6.29477416 -0.94426627 -11.51008248 -1.54274329 -19.69921875 -1.36328125 C-25.8386082 -0.68758513 -30.90256392 1.60170928 -36 5 Z " fill="#2F2C2C" transform="translate(54,6)"/>
<path d="M0 0 C-0.66 0.33 -1.32 0.66 -2 1 C-2 1.66 -2 2.32 -2 3 C-2.69738281 2.84144531 -3.39476562 2.68289062 -4.11328125 2.51953125 C-13.47739123 0.83424488 -21.52674825 1.72040632 -30 6 C-30.99 6.495 -30.99 6.495 -32 7 C-31.22520264 9.99152582 -31.22520264 9.99152582 -30 13 C-26.61551288 14.12816237 -26.26514011 13.92831662 -23.1875 12.5625 C-19.60077304 11.15014415 -16.89369909 10.30778683 -13 11 C-10.0625 13.1875 -10.0625 13.1875 -8 16 C-7.91883106 19.32792651 -8.71750499 20.63679213 -10.75 23.25 C-13.22894021 25.17806461 -14.91082652 25.6567585 -18 26 C-18 24.68 -18 23.36 -18 22 C-16.35 21.34 -14.7 20.68 -13 20 C-13 18.68 -13 17.36 -13 16 C-14.41750563 16.11509661 -15.83401169 16.24253658 -17.25 16.375 C-18.03890625 16.44460937 -18.8278125 16.51421875 -19.640625 16.5859375 C-22.10072329 17.0176766 -23.81450341 17.82213236 -26 19 C-28.4375 19.625 -28.4375 19.625 -31 19 C-34.39569081 15.0716518 -36.17698847 11.10803896 -37 6 C-26.01752514 -2.56965841 -13.10364618 -5.69621828 0 0 Z " fill="#2C2929" transform="translate(51,4)"/>
<path d="M0 0 C0.94875 0.04125 1.8975 0.0825 2.875 0.125 C2.545 1.115 2.215 2.105 1.875 3.125 C0.885 3.125 -0.105 3.125 -1.125 3.125 C-1.125 5.765 -1.125 8.405 -1.125 11.125 C-0.52171875 11.17398438 0.0815625 11.22296875 0.703125 11.2734375 C1.50234375 11.34820312 2.3015625 11.42296875 3.125 11.5 C4.30835938 11.60441406 4.30835938 11.60441406 5.515625 11.7109375 C8.02222596 12.15083767 9.72322646 12.77324483 11.875 14.125 C14.22049674 17.64324511 14.45491403 18.98275694 13.875 23.125 C11.5 26 11.5 26 8.875 28.125 C8.215 28.125 7.555 28.125 6.875 28.125 C6.875 27.465 6.875 26.805 6.875 26.125 C5.225 26.125 3.575 26.125 1.875 26.125 C1.875 25.795 1.875 25.465 1.875 25.125 C4.185 24.465 6.495 23.805 8.875 23.125 C8.875 21.475 8.875 19.825 8.875 18.125 C5.8943793 16.77017241 3.46017274 16.06875224 0.1875 15.625 C-3.125 15.125 -3.125 15.125 -5.125 13.125 C-5.390625 10.59375 -5.390625 10.59375 -5.375 7.625 C-5.38015625 6.6453125 -5.3853125 5.665625 -5.390625 4.65625 C-4.97669255 0.71171724 -3.88936012 0.1555744 0 0 Z " fill="#333030" transform="translate(31.125,26.875)"/>
<path d="M0 0 C-0.99 0.495 -0.99 0.495 -2 1 C-2 1.66 -2 2.32 -2 3 C-3.04607422 2.76216797 -3.04607422 2.76216797 -4.11328125 2.51953125 C-12.62228436 0.98814098 -20.23527311 1.4300469 -28.07421875 5.125 C-30 6 -30 6 -32 6 C-31.76171875 4.13671875 -31.76171875 4.13671875 -31 2 C-21.81435316 -4.09153422 -9.91897936 -4.39448453 0 0 Z " fill="#252424" transform="translate(51,4)"/>
<path d="M0 0 C4.07655174 -0.47401764 5.58343751 -0.31020611 8.9375 2.1875 C11 5 11 5 11.0625 7.5625 C9.7799236 10.50488114 8.53539472 12.02802633 6 14 C3.25 14.75 3.25 14.75 1 15 C1 13.68 1 12.36 1 11 C2.65 10.34 4.3 9.68 6 9 C6 7.68 6 6.36 6 5 C3.69 4.67 1.38 4.34 -1 4 C-0.67 2.68 -0.34 1.36 0 0 Z " fill="#2B2323" transform="translate(32,15)"/>
<path d="M0 0 C0.33 1.32 0.66 2.64 1 4 C-4.80933725 9.5075535 -9.6281243 14 -18 14 C-16.98577375 11.33483879 -16.30611629 10.18444057 -13.828125 8.69140625 C-12.55195312 8.13259766 -12.55195312 8.13259766 -11.25 7.5625 C-6.84540984 5.50702459 -3.56527329 3.28380435 0 0 Z " fill="#262323" transform="translate(59,56)"/>
<path d="M0 0 C-2.54782974 2.97246802 -5.45340883 4.41535288 -9 6 C-9.66 6 -10.32 6 -11 6 C-10.875 4.1875 -10.875 4.1875 -10 2 C-6.45371784 -0.28538184 -4.05371308 -1.71503246 0 0 Z " fill="#181414" transform="translate(30,4)"/>
<path d="M0 0 C-0.33 0.99 -0.66 1.98 -1 3 C-3.31 3.33 -5.62 3.66 -8 4 C-7.1875 2.0625 -7.1875 2.0625 -6 0 C-3 -1 -3 -1 0 0 Z " fill="#1D1B1B" transform="translate(49,66)"/>
<path d="M0 0 C0 0.99 0 1.98 0 3 C0.66 3.33 1.32 3.66 2 4 C-0.31 4.33 -2.62 4.66 -5 5 C-4.625 3.0625 -4.625 3.0625 -4 1 C-2 0 -2 0 0 0 Z " fill="#393636" transform="translate(31,16)"/>
<path d="M0 0 C0.33 0.99 0.66 1.98 1 3 C-0.4375 5.1875 -0.4375 5.1875 -2 7 C-2.66 6.67 -3.32 6.34 -4 6 C-4 5.01 -4 4.02 -4 3 C-2 1.3125 -2 1.3125 0 0 Z " fill="#1A1616" transform="translate(17,52)"/>
</svg>
