<?xml version="1.0" encoding="UTF-8"?>
<svg version="1.1" xmlns="http://www.w3.org/2000/svg" width="75" height="75">
<path d="M0 0 C2.8100346 1.79363911 4.50940468 3.01880935 6 6 C7.114108 14.96788164 7.12173003 23.9784521 7 33 C8.2375 33.0825 9.475 33.165 10.75 33.25 C13.66793828 33.63285006 14.97268095 33.98224262 17.5 35.625 C19.63903229 39.01180113 19.62087467 41.06779376 19 45 C16.4352833 48.46991083 14.89391378 49.78073813 10.6875 50.8125 C9.800625 50.874375 8.91375 50.93625 8 51 C7.96261719 51.73605469 7.92523438 52.47210938 7.88671875 53.23046875 C7.18869036 63.59139996 7.18869036 63.59139996 4 67 C0.7069753 68.64651235 -1.0816761 69.2135637 -4.6875 68.375 C-7.79729269 66.52593408 -9.36729391 64.6105246 -10.6875 61.25 C-11.16199225 57.83365581 -11.0174497 54.4480605 -11 51 C-12.31355469 50.97421875 -13.62710937 50.9484375 -14.98046875 50.921875 C-16.7161785 50.86558171 -18.4518543 50.80823465 -20.1875 50.75 C-21.05181641 50.73582031 -21.91613281 50.72164062 -22.80664062 50.70703125 C-26.96167863 50.54783439 -29.43004555 50.34680155 -33.04296875 48.1484375 C-35.90241995 45.00931942 -36.13703746 43.24816118 -36 39 C-33.15087158 29.44811433 -25.47501519 21.14967355 -19.61767578 13.26123047 C-17.43400724 10.20884018 -15.44259048 7.04343492 -13.47241211 3.84985352 C-10.04834174 -0.45195069 -5.21855284 -0.86975881 0 0 Z M-10 26 C-11.32 28.31 -12.64 30.62 -14 33 C-11.525 33.495 -11.525 33.495 -9 34 C-9 31.36 -9 28.72 -9 26 C-9.33 26 -9.66 26 -10 26 Z " fill="#C9D175" transform="translate(45,3)"/>
<path d="M0 0 C2.8100346 1.79363911 4.50940468 3.01880935 6 6 C7.114108 14.96788164 7.12173003 23.9784521 7 33 C8.2375 33.0825 9.475 33.165 10.75 33.25 C13.66793828 33.63285006 14.97268095 33.98224262 17.5 35.625 C19.63903229 39.01180113 19.62087467 41.06779376 19 45 C16.4352833 48.46991083 14.89391378 49.78073813 10.6875 50.8125 C9.800625 50.874375 8.91375 50.93625 8 51 C7.96261719 51.73605469 7.92523438 52.47210938 7.88671875 53.23046875 C7.18869036 63.59139996 7.18869036 63.59139996 4 67 C0.7069753 68.64651235 -1.0816761 69.2135637 -4.6875 68.375 C-7.79729269 66.52593408 -9.36729391 64.6105246 -10.6875 61.25 C-11.16199225 57.83365581 -11.0174497 54.4480605 -11 51 C-12.31355469 50.97421875 -13.62710937 50.9484375 -14.98046875 50.921875 C-16.7161785 50.86558171 -18.4518543 50.80823465 -20.1875 50.75 C-21.05181641 50.73582031 -21.91613281 50.72164062 -22.80664062 50.70703125 C-26.96167863 50.54783439 -29.43004555 50.34680155 -33.04296875 48.1484375 C-35.90241995 45.00931942 -36.13703746 43.24816118 -36 39 C-33.15087158 29.44811433 -25.47501519 21.14967355 -19.61767578 13.26123047 C-17.43400724 10.20884018 -15.44259048 7.04343492 -13.47241211 3.84985352 C-10.04834174 -0.45195069 -5.21855284 -0.86975881 0 0 Z M-22.75 21.6875 C-23.42160156 22.71939453 -24.09320313 23.75128906 -24.78515625 24.81445312 C-31.00592552 34.16921105 -31.00592552 34.16921105 -32 45 C-30.20290436 47.21870993 -30.20290436 47.21870993 -27.75341797 47.22705078 C-26.38660889 47.21134033 -26.38660889 47.21134033 -24.9921875 47.1953125 C-23.51298828 47.18564453 -23.51298828 47.18564453 -22.00390625 47.17578125 C-20.97136719 47.15902344 -19.93882813 47.14226563 -18.875 47.125 C-17.83472656 47.11597656 -16.79445313 47.10695312 -15.72265625 47.09765625 C-13.14820908 47.07403747 -10.57421788 47.04110149 -8 47 C-8.02320312 47.88042969 -8.04640625 48.76085938 -8.0703125 49.66796875 C-8.08835937 50.82941406 -8.10640625 51.99085937 -8.125 53.1875 C-8.14820312 54.33605469 -8.17140625 55.48460937 -8.1953125 56.66796875 C-8.00229913 59.96077691 -7.57844875 62.11670029 -6 65 C-3.14710302 66.25329784 -3.14710302 66.25329784 0 66 C3.1684009 63.71299062 3.92334543 62.43437591 4.609375 58.546875 C4.65578125 57.29390625 4.7021875 56.0409375 4.75 54.75 C4.83507813 52.85507813 4.83507813 52.85507813 4.921875 50.921875 C4.96054688 49.47554687 4.96054688 49.47554687 5 48 C5.62648437 47.95101562 6.25296875 47.90203125 6.8984375 47.8515625 C7.71570312 47.77679688 8.53296875 47.70203125 9.375 47.625 C10.18710937 47.55539063 10.99921875 47.48578125 11.8359375 47.4140625 C14.20334191 47.17107412 14.20334191 47.17107412 16 45 C16.41666667 41.5 16.41666667 41.5 16 38 C12.96474514 35.97649676 11.80573798 35.67875982 8.3125 35.375 C7.50425781 35.30023438 6.69601563 35.22546875 5.86328125 35.1484375 C5.24839844 35.09945312 4.63351563 35.05046875 4 35 C3.98541748 34.13721436 3.97083496 33.27442871 3.95581055 32.38549805 C3.89472246 29.18150353 3.82056451 25.97815375 3.73754883 22.7746582 C3.70431451 21.38870623 3.67627774 20.00261939 3.65356445 18.61645508 C3.61999383 16.62293157 3.56612 14.62978259 3.51171875 12.63671875 C3.48553467 11.43748779 3.45935059 10.23825684 3.43237305 9.00268555 C3.24664169 6.0180099 3.24664169 6.0180099 1.59619141 4.11889648 C-0.45198381 2.68316889 -1.81924612 2.46973504 -4.3125 2.375 C-5.05113281 2.32085937 -5.78976563 2.26671875 -6.55078125 2.2109375 C-13.89002518 4.57541481 -18.80961726 15.56016613 -22.75 21.6875 Z " fill="#393931" transform="translate(45,3)"/>
<path d="M0 0 C2.57412647 2.25920675 2.96847031 2.7871746 3.5 6.375 C3 10 3 10 0.875 12.875 C-2.23121539 15.17089833 -4.18863862 15.73409107 -8 16 C-8.03738281 16.73605469 -8.07476562 17.47210938 -8.11328125 18.23046875 C-8.81130964 28.59139996 -8.81130964 28.59139996 -12 32 C-15.2930247 33.64651235 -17.0816761 34.2135637 -20.6875 33.375 C-23.36804221 31.78116409 -24.43872226 30.70324089 -26 28 C-26.39853734 23.30257317 -26.13120849 18.72350556 -26 14 C-31.94 14 -37.88 14 -44 14 C-44 13.67 -44 13.34 -44 13 C-37.4 13 -30.8 13 -24 13 C-23.77213542 15.96223958 -23.54427083 18.92447917 -23.31640625 21.88671875 C-23.03548319 24.65086297 -22.59843148 27.28945741 -22 30 C-17.97365116 30.37000635 -17.97365116 30.37000635 -14.33984375 28.93359375 C-12.32073355 26.01971752 -12.51159627 23.37617813 -12.375 19.875 C-12.08333333 13.08333333 -12.08333333 13.08333333 -11 12 C-8.68182911 11.67902249 -6.36220643 11.48779044 -4.03125 11.28125 C-2.00819407 11.20934163 -2.00819407 11.20934163 -1 10 C-0.76712992 8.31816052 -0.58735834 6.6287584 -0.4375 4.9375 C-0.35371094 4.01839844 -0.26992188 3.09929688 -0.18359375 2.15234375 C-0.09271484 1.08693359 -0.09271484 1.08693359 0 0 Z " fill="#4F5044" transform="translate(61,38)"/>
<path d="M0 0 C0.66 0.33 1.32 0.66 2 1 C2 6.61 2 12.22 2 18 C-2.29 18 -6.58 18 -11 18 C-10.34 16.35 -9.68 14.7 -9 13 C-8.34 13 -7.68 13 -7 13 C-7 13.99 -7 14.98 -7 16 C-5.02 16 -3.04 16 -1 16 C-1.33 14.02 -1.66 12.04 -2 10 C-3.98 10.99 -3.98 10.99 -6 12 C-6.33 11.34 -6.66 10.68 -7 10 C-3.535 5.05 -3.535 5.05 0 0 Z " fill="#36362B" transform="translate(37,21)"/>
<path d="M0 0 C0.33 0 0.66 0 1 0 C1.83930594 9.02253886 2.12224626 17.9401941 2 27 C4.64 27.33 7.28 27.66 10 28 C10.33 29.32 10.66 30.64 11 32 C9.02006459 31.69240822 7.04106401 31.3787932 5.0625 31.0625 C3.96035156 30.88847656 2.85820313 30.71445312 1.72265625 30.53515625 C-1 30 -1 30 -2 29 C-2.25380234 24.52668042 -2.18522721 20.0421654 -2.1875 15.5625 C-2.20586914 13.66274414 -2.20586914 13.66274414 -2.22460938 11.72460938 C-2.22654297 10.51740234 -2.22847656 9.31019531 -2.23046875 8.06640625 C-2.23457764 6.95209229 -2.23868652 5.83777832 -2.24291992 4.68969727 C-2 2 -2 2 0 0 Z " fill="#747561" transform="translate(50,9)"/>
<path d="M0 0 C6.6 0 13.2 0 20 0 C20.22786458 2.96223958 20.45572917 5.92447917 20.68359375 8.88671875 C20.96451681 11.65086297 21.40156852 14.28945741 22 17 C26.42664564 17.30495485 26.42664564 17.30495485 30.375 15.5 C30.91125 15.005 31.4475 14.51 32 14 C32.66 14.33 33.32 14.66 34 15 C33.375 16.875 33.375 16.875 32 19 C28.73549464 20.5959804 26.87982696 21.20461092 23.3125 20.375 C20.63195779 18.78116409 19.56127774 17.70324089 18 15 C17.60146266 10.30257317 17.86879151 5.72350556 18 1 C12.06 1 6.12 1 0 1 C0 0.67 0 0.34 0 0 Z " fill="#363630" transform="translate(17,51)"/>
<path d="M0 0 C3.80622809 2.94117625 3.47021905 4.64576667 5 10 C12.26 10.33 19.52 10.66 27 11 C26.34 11.66 25.68 12.32 25 13 C24.75712511 15.44012949 24.75712511 15.44012949 24.875 18.125 C24.90207031 19.49011719 24.90207031 19.49011719 24.9296875 20.8828125 C24.95289062 21.58148438 24.97609375 22.28015625 25 23 C24.67 23 24.34 23 24 23 C24 20.36 24 17.72 24 15 C22.68644531 14.97421875 21.37289063 14.9484375 20.01953125 14.921875 C18.2838215 14.86558171 16.5481457 14.80823465 14.8125 14.75 C13.94818359 14.73582031 13.08386719 14.72164062 12.19335938 14.70703125 C8.05217778 14.54836529 5.55925454 14.33355283 1.94140625 12.17578125 C-0.70858107 9.20587594 -0.85748869 6.91906098 -1 3 C-0.67 2.01 -0.34 1.02 0 0 Z " fill="#777869" transform="translate(10,39)"/>
<path d="M0 0 C7.19895072 -0.48806446 7.19895072 -0.48806446 10.609375 1.58984375 C13 4 13 4 13.56762695 7.20800781 C13.52835083 9.06184082 13.52835083 9.06184082 13.48828125 10.953125 C13.47766914 11.94345734 13.47766914 11.94345734 13.46684265 12.95379639 C13.43894727 15.05370492 13.37623287 17.15090379 13.3125 19.25 C13.28741017 20.6770447 13.26459817 22.10413138 13.24414062 23.53125 C13.1891412 27.02170748 13.10290912 30.51058911 13 34 C12.67 34 12.34 34 12 34 C11.98541748 33.23333008 11.97083496 32.46666016 11.95581055 31.67675781 C11.8813078 28.20066507 11.78465354 24.72553032 11.6875 21.25 C11.66494141 20.0434375 11.64238281 18.836875 11.61914062 17.59375 C11.5659668 15.85351562 11.5659668 15.85351562 11.51171875 14.078125 C11.48553467 13.00981445 11.45935059 11.94150391 11.43237305 10.84082031 C10.94745489 7.65476288 10.28956643 6.2471122 8 4 C4.39534252 3.18685089 4.39534252 3.18685089 1 3 C0.67 2.01 0.34 1.02 0 0 Z " fill="#3B3C32" transform="translate(37,3)"/>
<path d="M0 0 C0.66 0.33 1.32 0.66 2 1 C1.31818268 4.56901906 -0.16467656 7.34446098 -1.9375 10.5 C-3.69228371 13.63877775 -5.42217868 16.7681341 -7 20 C-7.98500889 11.41635106 -5.00817038 6.83513049 0 0 Z " fill="#4F5048" transform="translate(18,26)"/>
<path d="M0 0 C1.32 0 2.64 0 4 0 C4 3.63 4 7.26 4 11 C3.67 11 3.34 11 3 11 C2.67 9.02 2.34 7.04 2 5 C0.02 5.99 0.02 5.99 -2 7 C-2.33 6.34 -2.66 5.68 -3 5 C-1.8125 2.375 -1.8125 2.375 0 0 Z " fill="#5F605A" transform="translate(33,26)"/>
<path d="M0 0 C2 3 2 3 2 5 C2.66 5 3.32 5 4 5 C4 5.99 4 6.98 4 8 C1.00675737 6.9024777 0.15389099 6.32317108 -1.25 3.375 C-1.4975 2.59125 -1.745 1.8075 -2 1 C-1.34 0.67 -0.68 0.34 0 0 Z " fill="#48493E" transform="translate(37,63)"/>
</svg>
