<?xml version="1.0" encoding="UTF-8"?>
<svg version="1.1" xmlns="http://www.w3.org/2000/svg" width="75" height="75">
<path d="M0 0 C1.27423828 -0.01224609 2.54847656 -0.02449219 3.86132812 -0.03710938 C5.07884766 -0.03904297 6.29636719 -0.04097656 7.55078125 -0.04296875 C9.21040894 -0.04913208 9.21040894 -0.04913208 10.90356445 -0.05541992 C13.6875 0.1875 13.6875 0.1875 16.6875 2.1875 C18.33775343 7.1382603 18.5288331 11.46825409 16.25 16.125 C14.6875 18.1875 14.6875 18.1875 13.6875 19.1875 C11.90678754 19.27476223 10.1226686 19.29449041 8.33984375 19.28515625 C7.26025391 19.28193359 6.18066406 19.27871094 5.06835938 19.27539062 C3.93205078 19.26701172 2.79574219 19.25863281 1.625 19.25 C0.48482422 19.24548828 -0.65535156 19.24097656 -1.83007812 19.23632812 C-4.65760351 19.22449747 -7.4850264 19.2080141 -10.3125 19.1875 C-10.3125 20.5075 -10.3125 21.8275 -10.3125 23.1875 C-9.47847656 23.14109375 -8.64445312 23.0946875 -7.78515625 23.046875 C0.69175546 22.77499238 7.28713169 23.14186388 13.72265625 29.05859375 C19.8227914 35.68481859 21.16774867 41.00849577 20.99609375 49.96484375 C20.32910737 56.9302078 16.85082515 61.94453696 11.78515625 66.64453125 C4.01413467 72.36064582 -4.95984447 73.12974515 -14.3125 72.1875 C-21.45202353 70.96732719 -27.01729716 68.15088856 -32.3125 63.1875 C-33.77137389 60.26975221 -33.68073233 58.44021895 -33.3125 55.1875 C-31.45259169 51.25924538 -29.50294225 48.71658545 -25.5 46.9375 C-22.1044605 47.20381682 -21.20708645 47.75045006 -18.5 49.625 C-14.6650603 52.27995826 -11.89873394 52.6971743 -7.29296875 52.55859375 C-5.00127549 52.26310761 -5.00127549 52.26310761 -2.3125 50.1875 C-1.8125 46.6875 -1.8125 46.6875 -2.3125 43.1875 C-6.02825751 40.71032833 -7.91236738 40.88404258 -12.3125 41.1875 C-13.116875 41.538125 -13.92125 41.88875 -14.75 42.25 C-18.48545319 43.61662922 -21.52799715 43.31674682 -25.3125 42.1875 C-28.3125 40.375 -28.3125 40.375 -30.3125 37.1875 C-31.61015667 29.85074884 -30.06553996 22.01697467 -29.125 14.6875 C-29.02445313 13.81472412 -28.92390625 12.94194824 -28.8203125 12.04272461 C-28.24769632 8.08405349 -27.80183235 5.77361342 -25.19921875 2.65625 C-17.68699476 -1.16593704 -8.21565252 0.00421965 0 0 Z " fill="#B8ADEF" transform="translate(43.3125,0.8125)"/>
<path d="M0 0 C1.27423828 -0.01224609 2.54847656 -0.02449219 3.86132812 -0.03710938 C5.07884766 -0.03904297 6.29636719 -0.04097656 7.55078125 -0.04296875 C9.21040894 -0.04913208 9.21040894 -0.04913208 10.90356445 -0.05541992 C13.6875 0.1875 13.6875 0.1875 16.6875 2.1875 C18.33775343 7.1382603 18.5288331 11.46825409 16.25 16.125 C14.6875 18.1875 14.6875 18.1875 13.6875 19.1875 C11.90678754 19.27476223 10.1226686 19.29449041 8.33984375 19.28515625 C7.26025391 19.28193359 6.18066406 19.27871094 5.06835938 19.27539062 C3.93205078 19.26701172 2.79574219 19.25863281 1.625 19.25 C0.48482422 19.24548828 -0.65535156 19.24097656 -1.83007812 19.23632812 C-4.65760351 19.22449747 -7.4850264 19.2080141 -10.3125 19.1875 C-10.3125 20.5075 -10.3125 21.8275 -10.3125 23.1875 C-9.47847656 23.14109375 -8.64445312 23.0946875 -7.78515625 23.046875 C0.69175546 22.77499238 7.28713169 23.14186388 13.72265625 29.05859375 C19.8227914 35.68481859 21.16774867 41.00849577 20.99609375 49.96484375 C20.32910737 56.9302078 16.85082515 61.94453696 11.78515625 66.64453125 C4.01413467 72.36064582 -4.95984447 73.12974515 -14.3125 72.1875 C-21.45202353 70.96732719 -27.01729716 68.15088856 -32.3125 63.1875 C-33.77137389 60.26975221 -33.68073233 58.44021895 -33.3125 55.1875 C-31.45259169 51.25924538 -29.50294225 48.71658545 -25.5 46.9375 C-22.1044605 47.20381682 -21.20708645 47.75045006 -18.5 49.625 C-14.6650603 52.27995826 -11.89873394 52.6971743 -7.29296875 52.55859375 C-5.00127549 52.26310761 -5.00127549 52.26310761 -2.3125 50.1875 C-1.8125 46.6875 -1.8125 46.6875 -2.3125 43.1875 C-6.02825751 40.71032833 -7.91236738 40.88404258 -12.3125 41.1875 C-13.116875 41.538125 -13.92125 41.88875 -14.75 42.25 C-18.48545319 43.61662922 -21.52799715 43.31674682 -25.3125 42.1875 C-28.3125 40.375 -28.3125 40.375 -30.3125 37.1875 C-31.61015667 29.85074884 -30.06553996 22.01697467 -29.125 14.6875 C-29.02445313 13.81472412 -28.92390625 12.94194824 -28.8203125 12.04272461 C-28.24769632 8.08405349 -27.80183235 5.77361342 -25.19921875 2.65625 C-17.68699476 -1.16593704 -8.21565252 0.00421965 0 0 Z M-24.3125 6.1875 C-25.18829911 8.3277048 -25.18829911 8.3277048 -25.5 10.75 C-25.64566406 11.63945312 -25.79132812 12.52890625 -25.94140625 13.4453125 C-26.06386719 14.35023437 -26.18632812 15.25515625 -26.3125 16.1875 C-26.42464844 17.00992187 -26.53679688 17.83234375 -26.65234375 18.6796875 C-26.94413926 21.18193393 -27.1459349 23.67388126 -27.3125 26.1875 C-27.38984375 27.1671875 -27.4671875 28.146875 -27.546875 29.15625 C-27.67775294 31.91922872 -27.72649492 34.45234257 -27.3125 37.1875 C-24.7640096 39.7359904 -23.26653379 40.07115442 -19.75 40.5 C-17.32259834 40.33520385 -17.32259834 40.33520385 -15.4375 39.1875 C-12.26848144 37.69619715 -9.7746583 37.88903808 -6.3125 38.1875 C-0.66133721 40.48982558 -0.66133721 40.48982558 0.6875 43.1875 C1.16016285 47.36268846 1.10357253 49.51317556 -1.125 53.125 C-5.79729548 56.14825002 -9.89576965 56.18132588 -15.3125 55.1875 C-17.62709402 54.03789267 -19.54039074 52.7920536 -21.55859375 51.18359375 C-23.28566469 49.97995246 -23.28566469 49.97995246 -25.42578125 50.39453125 C-28.32121965 51.61145463 -29.039099 53.3860178 -30.3125 56.1875 C-30.76565113 58.66894001 -30.76565113 58.66894001 -30.3125 61.1875 C-28.53817735 63.02651075 -28.53817735 63.02651075 -26.125 64.375 C-25.34769531 64.86355469 -24.57039063 65.35210937 -23.76953125 65.85546875 C-15.78713451 70.18296841 -7.18236216 70.41264957 1.64453125 68.5703125 C7.93415893 66.38681656 12.07829974 62.75387592 15.6875 57.1875 C17.98811174 51.78606374 18.57783336 45.99283694 17.6875 40.1875 C15.22364087 34.25183938 11.28173101 30.02732575 5.55078125 27.09375 C1.80586189 25.90845492 -1.7440177 25.97232525 -5.625 26.0625 C-6.73584961 26.07603516 -6.73584961 26.07603516 -7.86914062 26.08984375 C-9.68373467 26.11325787 -11.49816071 26.14912385 -13.3125 26.1875 C-12.4375 18.3125 -12.4375 18.3125 -11.3125 17.1875 C-9.55615973 17.06626955 -7.79539709 17.00786971 -6.03515625 16.9765625 C-4.42930664 16.93402344 -4.42930664 16.93402344 -2.79101562 16.890625 C-0.51774156 16.83863474 1.75572171 16.7943358 4.02929688 16.7578125 C5.63708008 16.71140625 5.63708008 16.71140625 7.27734375 16.6640625 C8.26597412 16.64424316 9.25460449 16.62442383 10.27319336 16.60400391 C11.06991455 16.46655762 11.86663574 16.32911133 12.6875 16.1875 C15.39982939 12.11900591 14.99449887 10.02273216 14.6875 5.1875 C12.24132684 2.74132684 10.87333092 2.93313417 7.53213501 2.88395691 C6.83317108 2.88486832 6.13420715 2.88577972 5.4140625 2.88671875 C4.69390961 2.88243362 3.97375671 2.8781485 3.23178101 2.87373352 C1.70694022 2.86798692 0.18207202 2.8674924 -1.34277344 2.87182617 C-3.6717031 2.87497862 -5.99935321 2.85155963 -8.328125 2.82617188 C-9.80989423 2.82389809 -11.29166688 2.82319576 -12.7734375 2.82421875 C-13.46835297 2.815009 -14.16326843 2.80579926 -14.87924194 2.79631042 C-18.96126055 2.83519248 -21.40923713 3.22540844 -24.3125 6.1875 Z " fill="#242326" transform="translate(43.3125,0.8125)"/>
<path d="M0 0 C3.93265896 -0.04947698 7.86519714 -0.08575578 11.7980957 -0.10986328 C13.79319618 -0.12485495 15.78820946 -0.15026731 17.78320312 -0.17578125 C19.66362305 -0.18544922 19.66362305 -0.18544922 21.58203125 -0.1953125 C22.73936768 -0.20578613 23.8967041 -0.21625977 25.08911133 -0.22705078 C28 0 28 0 31 2 C32.65025343 6.9507603 32.8413331 11.28075409 30.5625 15.9375 C29 18 29 18 28 19 C26.21928754 19.08726223 24.4351686 19.10699041 22.65234375 19.09765625 C21.57275391 19.09443359 20.49316406 19.09121094 19.38085938 19.08789062 C18.24455078 19.07951172 17.10824219 19.07113281 15.9375 19.0625 C14.79732422 19.05798828 13.65714844 19.05347656 12.48242188 19.04882812 C9.65489649 19.03699747 6.8274736 19.0205141 4 19 C4 20.32 4 21.64 4 23 C5.25103516 22.93039063 5.25103516 22.93039063 6.52734375 22.859375 C15.00425546 22.58749238 21.59963169 22.95436388 28.03515625 28.87109375 C34.1352914 35.49731859 35.48024867 40.82099577 35.30859375 49.77734375 C34.64160737 56.7427078 31.16332515 61.75703696 26.09765625 66.45703125 C18.17863752 72.28200778 9.49344247 72.54334488 0 72 C0 71.67 0 71.34 0 71 C1.10408203 70.94392578 1.10408203 70.94392578 2.23046875 70.88671875 C9.58158425 70.39326093 9.58158425 70.39326093 16 67 C17.32893677 66.38622302 18.66274577 65.78293788 20 65.1875 C25.31221029 62.54141789 28.05526816 59.33933599 30.3125 53.75 C31.50328499 47.25480913 32.30142133 41.54136095 28.875 35.625 C25.76442915 31.25075974 22.09293037 28.69764346 17 27 C14.26710707 26.77202438 11.54957796 26.58331813 8.8125 26.4375 C8.06291016 26.39431641 7.31332031 26.35113281 6.54101562 26.30664062 C4.69421625 26.20077315 2.84713166 26.0999024 1 26 C0.8046875 19.9453125 0.8046875 19.9453125 1 18 C3.60088622 15.39911378 4.82137113 15.70037775 8.4453125 15.5859375 C9.52167969 15.54726563 10.59804688 15.50859375 11.70703125 15.46875 C12.83496094 15.4378125 13.96289062 15.406875 15.125 15.375 C16.26066406 15.33632813 17.39632812 15.29765625 18.56640625 15.2578125 C21.37743956 15.16332399 24.18846233 15.07776459 27 15 C28.5635348 11.87293041 28.39958487 8.42017557 28 5 C27.34 4.01 26.68 3.02 26 2 C23.28995497 1.489395 23.28995497 1.489395 20.1171875 1.48828125 C18.95058594 1.45283203 17.78398438 1.41738281 16.58203125 1.38085938 C14.74705078 1.34702148 14.74705078 1.34702148 12.875 1.3125 C11.64394531 1.27833984 10.41289063 1.24417969 9.14453125 1.20898438 C6.0964449 1.12628436 3.04865429 1.05720573 0 1 C0 0.67 0 0.34 0 0 Z " fill="#3E3D41" transform="translate(29,1)"/>
<path d="M0 0 C0.76978683 0.00565979 1.53957367 0.01131958 2.33268738 0.01715088 C4.77842818 0.03944628 7.22267485 0.08962625 9.66796875 0.140625 C11.33135897 0.160699 12.99477228 0.1789482 14.65820312 0.1953125 C18.72452933 0.23928816 22.78974619 0.30826521 26.85546875 0.390625 C26.52546875 1.050625 26.19546875 1.710625 25.85546875 2.390625 C24.42497192 2.420354 24.42497192 2.420354 22.96557617 2.45068359 C19.42624576 2.52677514 15.88732458 2.61548661 12.34838867 2.70800781 C10.81689536 2.74628298 9.2853126 2.78113849 7.75366211 2.8125 C5.55159545 2.85818307 3.35014379 2.91617037 1.1484375 2.9765625 C0.46396042 2.98811371 -0.22051666 2.99966492 -0.92573547 3.01156616 C-4.52913962 3.12336244 -6.06044955 3.33457053 -9.14453125 5.390625 C-9.88109157 7.29423307 -9.88109157 7.29423307 -10.20703125 9.578125 C-10.44099609 10.90070312 -10.44099609 10.90070312 -10.6796875 12.25 C-11.41387948 17.21042311 -12.01441317 22.18610646 -12.58203125 27.16796875 C-13.14453125 30.390625 -13.14453125 30.390625 -15.14453125 33.390625 C-15.62485516 10.86877057 -15.62485516 10.86877057 -13.14453125 4.390625 C-9.09035059 0.18233524 -5.5832352 -0.15581298 0 0 Z " fill="#202023" transform="translate(29.14453125,1.609375)"/>
<path d="M0 0 C3.26961421 4.90442131 2.5370659 10.26903097 2 16 C0.31044305 22.18155269 -3.89024725 27.24142954 -9 31 C-16.78339085 35.2217112 -24.30460452 35.49766969 -33 35 C-33 34.67 -33 34.34 -33 34 C-31.89591797 33.94392578 -31.89591797 33.94392578 -30.76953125 33.88671875 C-23.41841575 33.39326093 -23.41841575 33.39326093 -17 30 C-15.67106323 29.38622302 -14.33725423 28.78293788 -13 28.1875 C-5.91370673 24.65102596 -3.42564434 19.1556508 -1 12 C-0.67 11.67 -0.34 11.34 0 11 C0.07226502 9.14712498 0.0838122 7.29166122 0.0625 5.4375 C0.05347656 4.42558594 0.04445312 3.41367187 0.03515625 2.37109375 C0.02355469 1.58863281 0.01195312 0.80617187 0 0 Z " fill="#464649" transform="translate(62,38)"/>
<path d="M0 0 C0.33 0 0.66 0 1 0 C1 1.65 1 3.3 1 5 C1.54914062 5.26683594 2.09828125 5.53367187 2.6640625 5.80859375 C4.30962963 6.64788802 5.9280073 7.54157702 7.5234375 8.47265625 C15.36893258 12.84678844 22.06356031 13.97356083 31 14 C30.67 14.66 30.34 15.32 30 16 C12.13905594 16.99719911 12.13905594 16.99719911 4 11 C0.8614353 8.08561849 0.07223066 6.9570563 -0.25 2.6875 C-0.1675 1.800625 -0.085 0.91375 0 0 Z " fill="#2A2A2C" transform="translate(10,56)"/>
<path d="M0 0 C6.96990192 1.69407338 12.39563978 4.35994017 17 10 C19.2591243 14.7713455 19.21602157 19.81548235 19 25 C18.34 25.33 17.68 25.66 17 26 C16.98582031 25.443125 16.97164062 24.88625 16.95703125 24.3125 C16.57075974 18.1321558 15.03162275 13.75193935 11 9 C7.9747632 6.6403153 5.62370313 5.20790104 2 4 C0.8125 1.9375 0.8125 1.9375 0 0 Z " fill="#232225" transform="translate(44,24)"/>
<path d="M0 0 C3.93265896 -0.04947698 7.86519714 -0.08575578 11.7980957 -0.10986328 C13.79319618 -0.12485495 15.78820946 -0.15026731 17.78320312 -0.17578125 C19.66362305 -0.18544922 19.66362305 -0.18544922 21.58203125 -0.1953125 C22.73936768 -0.20578613 23.8967041 -0.21625977 25.08911133 -0.22705078 C28 0 28 0 31 2 C31.8814688 4.64440639 32.16174818 6.28060752 32.1875 9 C32.20167969 9.680625 32.21585938 10.36125 32.23046875 11.0625 C32 13 32 13 30 16 C29.34 15.67 28.68 15.34 28 15 C28.02320312 14.31292969 28.04640625 13.62585937 28.0703125 12.91796875 C28.08835937 12.01691406 28.10640625 11.11585937 28.125 10.1875 C28.14820312 9.29417969 28.17140625 8.40085937 28.1953125 7.48046875 C28.18285827 4.74597286 28.18285827 4.74597286 26 2 C23.28995497 1.489395 23.28995497 1.489395 20.1171875 1.48828125 C18.95058594 1.45283203 17.78398438 1.41738281 16.58203125 1.38085938 C14.74705078 1.34702148 14.74705078 1.34702148 12.875 1.3125 C11.64394531 1.27833984 10.41289063 1.24417969 9.14453125 1.20898438 C6.0964449 1.12628436 3.04865429 1.05720573 0 1 C0 0.67 0 0.34 0 0 Z " fill="#5C5B5C" transform="translate(29,1)"/>
<path d="M0 0 C11.55 0 23.1 0 35 0 C34.67 0.66 34.34 1.32 34 2 C16.675 2.495 16.675 2.495 -1 3 C-0.67 2.01 -0.34 1.02 0 0 Z " fill="#09090A" transform="translate(21,2)"/>
<path d="M0 0 C0.33 0 0.66 0 1 0 C1.33 1.98 1.66 3.96 2 6 C2.33 6 2.66 6 3 6 C3.0825 6.94875 3.165 7.8975 3.25 8.875 C3.66539386 12.02976502 3.66539386 12.02976502 5.75 13.375 C8.28484026 14.07912229 10.3785373 14.13443398 13 14 C13.99 14 14.98 14 16 14 C16.66 14.66 17.32 15.32 18 16 C13.52006362 18.3799662 9.77300812 18.42420404 5 17 C2 15.1875 2 15.1875 0 12 C-0.40458599 7.96464879 -0.28998191 4.04041464 0 0 Z " fill="#333336" transform="translate(13,26)"/>
<path d="M0 0 C0.33 0.99 0.66 1.98 1 3 C0 4 0 4 -2.40844727 4.11352539 C-3.45057373 4.10828857 -4.4927002 4.10305176 -5.56640625 4.09765625 C-6.69111328 4.09443359 -7.81582031 4.09121094 -8.97460938 4.08789062 C-10.15861328 4.07951172 -11.34261719 4.07113281 -12.5625 4.0625 C-13.75037109 4.05798828 -14.93824219 4.05347656 -16.16210938 4.04882812 C-19.10812226 4.03699675 -22.05403681 4.02051287 -25 4 C-24.67 3.34 -24.34 2.68 -24 2 C-23.01604248 1.96241577 -23.01604248 1.96241577 -22.01220703 1.92407227 C-19.04959817 1.8082674 -16.08731969 1.68547114 -13.125 1.5625 C-12.09246094 1.52318359 -11.05992188 1.48386719 -9.99609375 1.44335938 C-9.00996094 1.40146484 -8.02382813 1.35957031 -7.0078125 1.31640625 C-6.09660645 1.27974854 -5.18540039 1.24309082 -4.24658203 1.20532227 C-1.96516519 1.13422935 -1.96516519 1.13422935 0 0 Z " fill="#060606" transform="translate(58,15)"/>
<path d="M0 0 C3.25655496 4.88483244 2.57782169 10.28897166 2 16 C0.96295504 19.03899262 -0.28012375 21.25894723 -2 24 C-2.99 23.67 -3.98 23.34 -5 23 C-4.54965877 21.37276701 -4.08944646 19.74826336 -3.625 18.125 C-3.36976562 17.22007813 -3.11453125 16.31515625 -2.8515625 15.3828125 C-2 13 -2 13 0 11 C0.24315656 8.33050591 0.24315656 8.33050591 0.125 5.375 C0.10695313 4.37210938 0.08890625 3.36921875 0.0703125 2.3359375 C0.04710937 1.56507812 0.02390625 0.79421875 0 0 Z " fill="#555457" transform="translate(62,38)"/>
<path d="M0 0 C0.66 0.33 1.32 0.66 2 1 C1.57855998 3.1490452 1.13737951 5.29422788 0.6875 7.4375 C0.44386719 8.63246094 0.20023438 9.82742188 -0.05078125 11.05859375 C-0.36402344 12.02925781 -0.67726563 12.99992188 -1 14 C-1.99 14.33 -2.98 14.66 -4 15 C-4.29380531 6.33274336 -4.29380531 6.33274336 -2 2 C-1.34 1.34 -0.68 0.68 0 0 Z " fill="#333237" transform="translate(19,3)"/>
<path d="M0 0 C5.875 1.875 5.875 1.875 7 3 C8.34747084 3.23075082 9.70377565 3.41153063 11.0625 3.5625 C12.361875 3.706875 13.66125 3.85125 15 4 C15 4.66 15 5.32 15 6 C8.30713088 6.47617251 4.22468764 6.39973696 -1 2 C-0.67 1.34 -0.34 0.68 0 0 Z " fill="#18181B" transform="translate(23,51)"/>
<path d="M0 0 C0.33 0 0.66 0 1 0 C1 1.65 1 3.3 1 5 C1.66 5.33 2.32 5.66 3 6 C-0.625 10.875 -0.625 10.875 -4 12 C-4 11.34 -4 10.68 -4 10 C-6.64 10 -9.28 10 -12 10 C-12 9.67 -12 9.34 -12 9 C-8.7 8.34 -5.4 7.68 -2 7 C-1.34 4.69 -0.68 2.38 0 0 Z " fill="#535355" transform="translate(42,45)"/>
<path d="M0 0 C0.33 0 0.66 0 1 0 C1.33 1.98 1.66 3.96 2 6 C2.33 6 2.66 6 3 6 C3.33 8.31 3.66 10.62 4 13 C2.68 12.67 1.36 12.34 0 12 C0 8.04 0 4.08 0 0 Z " fill="#47464B" transform="translate(13,26)"/>
<path d="M0 0 C0.33 0.99 0.66 1.98 1 3 C-0.8125 5 -0.8125 5 -3 7 C-3.99 7 -4.98 7 -6 7 C-4.60667426 3.63279613 -3.0210714 2.0140476 0 0 Z " fill="#1F1F21" transform="translate(58,60)"/>
<path d="M0 0 C3.4375 0.8125 3.4375 0.8125 7 2 C7.33 2.99 7.66 3.98 8 5 C5.125 4.75 5.125 4.75 2 4 C0.625 1.9375 0.625 1.9375 0 0 Z " fill="#2C2B2D" transform="translate(20,67)"/>
<path d="M0 0 C3.625 -0.1875 3.625 -0.1875 7 0 C7 0.66 7 1.32 7 2 C2.545 2.495 2.545 2.495 -2 3 C-1.34 2.01 -0.68 1.02 0 0 Z " fill="#151419" transform="translate(30,38)"/>
<path d="M0 0 C0.33 0 0.66 0 1 0 C1.25 7.625 1.25 7.625 -1 11 C-1.66 10.67 -2.32 10.34 -3 10 C-2.01 6.7 -1.02 3.4 0 0 Z " fill="#5C5C5D" transform="translate(60,6)"/>
</svg>
