<?xml version="1.0" encoding="UTF-8"?>
<svg version="1.1" xmlns="http://www.w3.org/2000/svg" width="75" height="75">
<path d="M0 0 C3.70790637 1.41574607 6.48494209 2.92444347 9 6 C9.8348287 10.08389173 9.62697367 13.80576443 7.6875 17.5 C4.03072242 19.54099214 0.70125249 19.58041714 -3.44140625 19.7265625 C-6.24068911 19.82596834 -6.24068911 19.82596834 -9 22 C-7.80503906 22.14695312 -7.80503906 22.14695312 -6.5859375 22.296875 C0.99607383 23.36684254 5.79189998 24.70278609 11.25 30.3125 C14.74656266 35.68222123 15.87252646 41.67142199 15 48 C13.19819678 55.47694391 10.45087843 61.54279857 4 66 C-2.75405074 69.38917294 -9.73347641 70.2180269 -17 67.9375 C-23.6508456 65.09648918 -28.61005206 60.82072446 -31.5 54.125 C-35.09154285 42.45248572 -34.09363722 29.03382261 -29 18 C-22.37782194 6.38502856 -13.6678201 -1.19672158 0 0 Z M-11.75 41.125 C-13.55091729 43.82637593 -13.33742066 45.82824583 -13 49 C-11.17528109 51.21896136 -11.17528109 51.21896136 -8.5625 51.375 C-5.90483483 51.22786947 -5.90483483 51.22786947 -4.125 49.3125 C-2.69875612 46.38077646 -2.95769611 45.04673446 -4 42 C-4.66 41.34 -5.32 40.68 -6 40 C-9.78595012 39.63949494 -9.78595012 39.63949494 -11.75 41.125 Z " fill="#27BCF4" transform="translate(47,2)"/>
<path d="M0 0 C3.70790637 1.41574607 6.48494209 2.92444347 9 6 C9.8348287 10.08389173 9.62697367 13.80576443 7.6875 17.5 C4.03072242 19.54099214 0.70125249 19.58041714 -3.44140625 19.7265625 C-6.24068911 19.82596834 -6.24068911 19.82596834 -9 22 C-7.80503906 22.14695312 -7.80503906 22.14695312 -6.5859375 22.296875 C0.99607383 23.36684254 5.79189998 24.70278609 11.25 30.3125 C14.74656266 35.68222123 15.87252646 41.67142199 15 48 C13.19819678 55.47694391 10.45087843 61.54279857 4 66 C-2.75405074 69.38917294 -9.73347641 70.2180269 -17 67.9375 C-23.6508456 65.09648918 -28.61005206 60.82072446 -31.5 54.125 C-35.09154285 42.45248572 -34.09363722 29.03382261 -29 18 C-22.37782194 6.38502856 -13.6678201 -1.19672158 0 0 Z M-21.3984375 11.94921875 C-29.2387785 21.98867978 -31.10813251 33.57797138 -30 46 C-28.20964024 53.85822771 -25.37799464 58.89450207 -18.7421875 63.6015625 C-12.97558206 66.54236698 -5.61435314 65.80807279 0.4375 63.9375 C5.63430927 60.00820519 9.76465781 55.54731363 11 49 C11.66536095 41.55627434 11.72114036 35.99712424 7 30 C1.42957468 25.88526074 -4.33063481 26.20602795 -11 27 C-13.5721881 28.06483056 -14.9233595 29.10135726 -17 31 C-15.64680712 25.20060194 -13.9614492 20.75212304 -9.17578125 17.01171875 C-5.60761086 15.35255155 -2.21193925 15.66521882 1.64453125 15.984375 C2.81048828 15.99210937 2.81048828 15.99210937 4 16 C6.27180354 14.12331681 6.27180354 14.12331681 6.4375 11.125 C6.26803763 7.90516591 6.26803763 7.90516591 4.0625 5.6875 C-5.89303712 0.20179587 -14.13018511 4.19973504 -21.3984375 11.94921875 Z " fill="#2B3132" transform="translate(47,2)"/>
<path d="M0 0 C0.33 0.66 0.66 1.32 1 2 C0.07421875 4.1015625 0.07421875 4.1015625 -1.3125 6.625 C-6.28347724 16.31840562 -7.72860878 26.41280901 -5.27734375 37.171875 C-2.97612695 44.06620874 -0.27953363 48.23409727 6.25 51.75 C10.5270078 53.17566927 14.52185087 53.70551854 19 54 C16.44596852 56.55403148 15.35990775 56.32607024 11.8125 56.375 C5.45633549 56.2339363 1.97676505 54.71638607 -2.65234375 50.4921875 C-9.56170308 43.22806889 -10.46800363 35.25059413 -10.4284668 25.52880859 C-10.15742932 16.83453926 -8.06295446 8.19271112 -3 1 C-2.01 0.67 -1.02 0.34 0 0 Z " fill="#1E2A2D" transform="translate(24,14)"/>
<path d="M0 0 C2.875 1.4375 2.875 1.4375 5 4 C5.83863977 8.24066904 5.34218634 11.9050037 4.0625 16 C1.26762176 18.71018496 -1.02533816 18.91733687 -4.83984375 19.140625 C-7 19 -7 19 -9.5 17.75 C-11.72983105 15.14853044 -11.99940316 13.00644586 -12.3125 9.625 C-11.94884973 5.40665686 -10.95115008 3.95115008 -8 1 C-5.14675563 -0.42662219 -3.16545451 -0.31033868 0 0 Z M-6.75 5.125 C-8.55091729 7.82637593 -8.33742066 9.82824583 -8 13 C-6.17528109 15.21896136 -6.17528109 15.21896136 -3.5625 15.375 C-0.90483483 15.22786947 -0.90483483 15.22786947 0.875 13.3125 C2.30124388 10.38077646 2.04230389 9.04673446 1 6 C0.34 5.34 -0.32 4.68 -1 4 C-4.78595012 3.63949494 -4.78595012 3.63949494 -6.75 5.125 Z " fill="#646869" transform="translate(42,38)"/>
<path d="M0 0 C2.51983745 3.77975618 2.57511156 7.63206412 2 12 C0.20621521 19.4758935 -2.55297562 25.5454615 -9 30 C-14.61638891 32.81829587 -19.79471566 33.33847005 -26 33 C-26 32.67 -26 32.34 -26 32 C-22.535 31.505 -22.535 31.505 -19 31 C-21.31 30.67 -23.62 30.34 -26 30 C-26 29.67 -26 29.34 -26 29 C-25.14277344 28.92523438 -24.28554688 28.85046875 -23.40234375 28.7734375 C-14.46877272 27.75746325 -14.46877272 27.75746325 -7.296875 22.76171875 C-3.56936649 17.69814544 -2.6744494 12.24223838 -2.30859375 6.078125 C-1.96039489 3.73329217 -1.15351009 2.05686136 0 0 Z " fill="#354043" transform="translate(60,38)"/>
<path d="M0 0 C0.66 0.66 1.32 1.32 2 2 C4.25002337 2.04038503 6.50225883 1.98406761 8.75 1.875 C14.4189045 1.79964646 17.76912101 1.88045993 22 6 C24.98877861 9.02162233 25.94562527 10.47528387 26.390625 14.76953125 C26.36431837 16.11774585 26.31701804 17.46569518 26.25 18.8125 C26.23195313 19.50537109 26.21390625 20.19824219 26.1953125 20.91210938 C26.14851064 22.60867664 26.07677624 24.30452476 26 26 C25.67 26 25.34 26 25 26 C24.83564453 24.89591797 24.83564453 24.89591797 24.66796875 23.76953125 C23.82022886 18.55214019 23.11712771 14.39231632 20 10 C20 9.34 20 8.68 20 8 C16.03383696 6.1392394 12.8054785 5.70268417 8.4375 5.6875 C7.32246094 5.67074219 6.20742188 5.65398438 5.05859375 5.63671875 C1.71270034 6.03412371 0.50250708 6.84931931 -2 9 C-2.66 9 -3.32 9 -4 9 C-3.6875 5.625 -3.6875 5.625 -3 2 C-2.01 1.34 -1.02 0.68 0 0 Z " fill="#151D1F" transform="translate(34,24)"/>
<path d="M0 0 C0.33 0 0.66 0 1 0 C1.60383387 7.84984026 1.60383387 7.84984026 -0.3125 11.5 C-3.96927758 13.54099214 -7.29874751 13.58041714 -11.44140625 13.7265625 C-14.24068911 13.82596834 -14.24068911 13.82596834 -17 16 C-14.03 16.33 -11.06 16.66 -8 17 C-8 17.33 -8 17.66 -8 18 C-11.96 18.33 -15.92 18.66 -20 19 C-20.33 18.34 -20.66 17.68 -21 17 C-21.66 16.67 -22.32 16.34 -23 16 C-19.76381455 12.36508683 -16.97035606 9.30730324 -12.01953125 8.53515625 C-9.31536768 8.55964415 -6.68552678 8.6889923 -4 9 C-2.68 6.03 -1.36 3.06 0 0 Z " fill="#494A4B" transform="translate(55,8)"/>
<path d="M0 0 C3.57423953 -0.3324874 5.63583344 -0.18208328 8.875 1.4375 C11.58037305 4.69986162 11.61909884 6.67425616 11.33984375 10.80859375 C10.83872034 14.03997571 10.38174726 15.6904269 8 18 C5.00201695 18.70697118 2.07409714 18.92910887 -1 19 C2 17 2 17 4.625 15.8125 C7.35123532 14.11461015 7.35123532 14.11461015 7.9375 10.5 C8.3343558 6.88461063 8.3343558 6.88461063 6 4 C2.92078868 3.74339906 0.78863007 3.60568496 -2 5 C-1.34 3.35 -0.68 1.7 0 0 Z " fill="#060F11" transform="translate(36,38)"/>
<path d="M0 0 C2.77597276 0.2871696 3.85289903 0.84782659 5.8125 2.875 C10.96677288 7.88200794 17.12574362 8.54795139 24 9 C21.44596852 11.55403148 20.35990775 11.32607024 16.8125 11.375 C11.26029298 11.25887541 8.41513257 10.35550075 4 7 C2.1584683 5.07880917 0.602527 3.13670266 -1 1 C-0.67 0.67 -0.34 0.34 0 0 Z " fill="#1B2122" transform="translate(19,59)"/>
<path d="M0 0 C0.66 0.66 1.32 1.32 2 2 C4.89883083 2.24339551 4.89883083 2.24339551 8.125 2.125 C9.76855469 2.09792969 9.76855469 2.09792969 11.4453125 2.0703125 C12.28835937 2.04710937 13.13140625 2.02390625 14 2 C14 2.66 14 3.32 14 4 C13.34773438 4.02578125 12.69546875 4.0515625 12.0234375 4.078125 C6.05107458 4.46571197 2.71748554 5.34394871 -2 9 C-2.66 9 -3.32 9 -4 9 C-3.6875 5.625 -3.6875 5.625 -3 2 C-2.01 1.34 -1.02 0.68 0 0 Z " fill="#061215" transform="translate(34,24)"/>
<path d="M0 0 C9.72471667 -0.61311699 9.72471667 -0.61311699 14.25 1.5625 C16 4 16 4 15.8125 7.75 C15.544375 8.8225 15.27625 9.895 15 11 C14.7525 10.401875 14.505 9.80375 14.25 9.1875 C12.33532399 5.83681699 10.13028186 4.32024653 6.421875 3.26953125 C5.54015625 3.11871094 4.6584375 2.96789062 3.75 2.8125 C2.85796875 2.65394531 1.9659375 2.49539062 1.046875 2.33203125 C0.37140625 2.22246094 -0.3040625 2.11289063 -1 2 C-0.67 1.34 -0.34 0.68 0 0 Z " fill="#151E20" transform="translate(39,3)"/>
<path d="M0 0 C0.66 0.33 1.32 0.66 2 1 C2 1.33 2 1.66 2 2 C3.3921875 1.87625 3.3921875 1.87625 4.8125 1.75 C8 2 8 2 9.9375 3.75 C11 6 11 6 10.6875 8.25 C10.460625 8.8275 10.23375 9.405 10 10 C8.515 7.03 8.515 7.03 7 4 C4.23723823 4.52268466 1.6739124 5.10869587 -1 6 C-2.22520264 9.00847418 -2.22520264 9.00847418 -3 12 C-3.33 12 -3.66 12 -4 12 C-4.33292585 7.75519536 -4.43885872 5.64457375 -2 2.0625 C-1.34 1.381875 -0.68 0.70125 0 0 Z " fill="#5B6365" transform="translate(34,39)"/>
<path d="M0 0 C2.50578682 3.75868023 2.41974033 7.64923007 2 12 C1.47319499 14.41149534 0.78251188 16.65246437 0 19 C-0.99 18.34 -1.98 17.68 -3 17 C-2.88556397 14.9160597 -2.75804453 12.83283507 -2.625 10.75 C-2.55539063 9.58984375 -2.48578125 8.4296875 -2.4140625 7.234375 C-2.03751692 4.29305666 -1.5225877 2.50050989 0 0 Z " fill="#465255" transform="translate(60,38)"/>
<path d="M0 0 C0.33 0.66 0.66 1.32 1 2 C-0.21484375 4.6015625 -0.21484375 4.6015625 -1.9375 7.625 C-2.50339844 8.62789062 -3.06929687 9.63078125 -3.65234375 10.6640625 C-4.09707031 11.43492188 -4.54179687 12.20578125 -5 13 C-5.66 13 -6.32 13 -7 13 C-6.53640488 8.27132978 -5.9200845 4.81857204 -3 1 C-2.01 0.67 -1.02 0.34 0 0 Z " fill="#212728" transform="translate(24,14)"/>
<path d="M0 0 C0.66 0.33 1.32 0.66 2 1 C1.34 2.65 0.68 4.3 0 6 C2.97 6.33 5.94 6.66 9 7 C9 7.33 9 7.66 9 8 C3.06 8.495 3.06 8.495 -3 9 C-3.33 8.34 -3.66 7.68 -4 7 C-4.66 6.67 -5.32 6.34 -6 6 C-4.02 4.02 -2.04 2.04 0 0 Z " fill="#4E5355" transform="translate(38,18)"/>
<path d="M0 0 C0.89203125 0.01804688 1.7840625 0.03609375 2.703125 0.0546875 C3.71632813 0.08949219 3.71632813 0.08949219 4.75 0.125 C4.75 0.455 4.75 0.785 4.75 1.125 C2.11 1.455 -0.53 1.785 -3.25 2.125 C-3.25 2.785 -3.25 3.445 -3.25 4.125 C-5.89 5.115 -8.53 6.105 -11.25 7.125 C-9.78206651 2.47654394 -9.78206651 2.47654394 -7.5 0.96875 C-4.85346899 -0.02369913 -2.81790436 -0.07415538 0 0 Z " fill="#393E3F" transform="translate(42.25,1.875)"/>
<path d="M0 0 C0.66 0 1.32 0 2 0 C2.3125 2.3125 2.3125 2.3125 2 5 C-1.55964352 8.03616654 -4.42411796 8.31924758 -9 8 C-6 6 -6 6 -3.375 4.5625 C-0.70953007 3.15982726 -0.70953007 3.15982726 0 0 Z " fill="#07161A" transform="translate(44,49)"/>
<path d="M0 0 C0.33 0.66 0.66 1.32 1 2 C1.66 2 2.32 2 3 2 C2.67 4.31 2.34 6.62 2 9 C1.34 9 0.68 9 0 9 C-0.33 11.31 -0.66 13.62 -1 16 C-1.33 16 -1.66 16 -2 16 C-2.20674944 10.21101581 -1.59162079 5.57067277 0 0 Z " fill="#363C3D" transform="translate(16,25)"/>
<path d="M0 0 C0.33 0 0.66 0 1 0 C1.05429959 1.74965358 1.09292823 3.49979787 1.125 5.25 C1.14820313 6.22453125 1.17140625 7.1990625 1.1953125 8.203125 C0.99862781 11.0196498 0.44568916 12.60949036 -1 15 C-1.91147322 10.03753471 -1.99130954 5.95654768 -1 1 C-0.67 0.67 -0.34 0.34 0 0 Z " fill="#070B0C" transform="translate(16,33)"/>
<path d="M0 0 C3.63 0.33 7.26 0.66 11 1 C10.67 1.66 10.34 2.32 10 3 C6.37 3 2.74 3 -1 3 C-0.67 2.01 -0.34 1.02 0 0 Z " fill="#060F10" transform="translate(40,17)"/>
<path d="M0 0 C1.36118461 2.24195113 2.06138028 3.47826762 1.75 6.125 C1 8 1 8 -1 10 C-1.33 7.03 -1.66 4.06 -2 1 C-1.34 0.67 -0.68 0.34 0 0 Z " fill="#30393B" transform="translate(16,44)"/>
<path d="M0 0 C1.32 0.66 2.64 1.32 4 2 C0.4513865 4.36574234 -0.5764525 4.10865265 -4.6875 3.625 C-6.17830078 3.45871094 -6.17830078 3.45871094 -7.69921875 3.2890625 C-8.45847656 3.19367187 -9.21773437 3.09828125 -10 3 C-10 2.67 -10 2.34 -10 2 C-6.7 2 -3.4 2 0 2 C0 1.34 0 0.68 0 0 Z " fill="#1D4855" transform="translate(48,26)"/>
<path d="M0 0 C1 3 1 3 0.0625 5.1875 C-0.4634375 6.0846875 -0.4634375 6.0846875 -1 7 C-1.66 7 -2.32 7 -3 7 C-2.25 2.25 -2.25 2.25 0 0 Z " fill="#0E1313" transform="translate(20,20)"/>
</svg>
