<?xml version="1.0" encoding="UTF-8"?>
<svg version="1.1" xmlns="http://www.w3.org/2000/svg" width="75" height="75">
<path d="M0 0 C1.20348083 -0.01142029 1.20348083 -0.01142029 2.43127441 -0.02307129 C4.12228289 -0.03384414 5.81335775 -0.03673685 7.50439453 -0.03222656 C10.08609062 -0.03125289 12.66482537 -0.07292875 15.24609375 -0.1171875 C16.893223 -0.1223941 18.54036253 -0.1250827 20.1875 -0.125 C21.3392572 -0.1495929 21.3392572 -0.1495929 22.51428223 -0.17468262 C26.4436361 -0.12419701 28.39383753 0.31985916 31.57543945 2.68945312 C34.36319263 6.52830424 34.37449624 8.82403569 34.15380859 13.4453125 C33.11488536 19.05386756 30.29681452 23.61684235 27.40625 28.46875 C26.24248166 30.48750534 25.0822955 32.50833016 23.92578125 34.53125 C23.07983398 36.00754883 23.07983398 36.00754883 22.21679688 37.51367188 C18.08291099 45.04022945 15.02999984 52.7185293 12.5859375 60.9375 C11.26966941 64.29553827 9.79219798 65.86952601 6.59375 67.46875 C4.80515489 67.59082871 3.01146619 67.64423448 1.21875 67.65625 C0.26226563 67.67042969 -0.69421875 67.68460937 -1.6796875 67.69921875 C-4.46906968 67.46344003 -6.07432549 66.98609814 -8.40625 65.46875 C-10.5835706 61.1141088 -8.98862588 55.30287579 -7.57275391 50.84375 C-6.52411128 48.18231205 -5.39778626 45.5749777 -4.21875 42.96875 C-3.81599854 42.05327393 -3.41324707 41.13779785 -2.99829102 40.19458008 C-0.22615146 33.9988454 2.74099129 28.07413621 6.59375 22.46875 C4.35388611 20.22888611 -1.86461482 21.16693559 -5.06054688 21.12695312 C-8.77874496 20.98947891 -10.81462032 20.89665826 -13.890625 18.671875 C-16.18255545 15.34030599 -16.60549587 12.46960699 -16.40625 8.46875 C-13.38844311 0.92423278 -7.43985836 0.00195159 0 0 Z " fill="#F9B963" transform="translate(29.40625,3.53125)"/>
<path d="M0 0 C1.20348083 -0.01142029 1.20348083 -0.01142029 2.43127441 -0.02307129 C4.12228289 -0.03384414 5.81335775 -0.03673685 7.50439453 -0.03222656 C10.08609062 -0.03125289 12.66482537 -0.07292875 15.24609375 -0.1171875 C16.893223 -0.1223941 18.54036253 -0.1250827 20.1875 -0.125 C21.3392572 -0.1495929 21.3392572 -0.1495929 22.51428223 -0.17468262 C26.4436361 -0.12419701 28.39383753 0.31985916 31.57543945 2.68945312 C34.36319263 6.52830424 34.37449624 8.82403569 34.15380859 13.4453125 C33.11488536 19.05386756 30.29681452 23.61684235 27.40625 28.46875 C26.24248166 30.48750534 25.0822955 32.50833016 23.92578125 34.53125 C23.07983398 36.00754883 23.07983398 36.00754883 22.21679688 37.51367188 C18.08291099 45.04022945 15.02999984 52.7185293 12.5859375 60.9375 C11.26966941 64.29553827 9.79219798 65.86952601 6.59375 67.46875 C4.80515489 67.59082871 3.01146619 67.64423448 1.21875 67.65625 C0.26226563 67.67042969 -0.69421875 67.68460937 -1.6796875 67.69921875 C-4.46906968 67.46344003 -6.07432549 66.98609814 -8.40625 65.46875 C-10.5835706 61.1141088 -8.98862588 55.30287579 -7.57275391 50.84375 C-6.52411128 48.18231205 -5.39778626 45.5749777 -4.21875 42.96875 C-3.81599854 42.05327393 -3.41324707 41.13779785 -2.99829102 40.19458008 C-0.22615146 33.9988454 2.74099129 28.07413621 6.59375 22.46875 C4.35388611 20.22888611 -1.86461482 21.16693559 -5.06054688 21.12695312 C-8.77874496 20.98947891 -10.81462032 20.89665826 -13.890625 18.671875 C-16.18255545 15.34030599 -16.60549587 12.46960699 -16.40625 8.46875 C-13.38844311 0.92423278 -7.43985836 0.00195159 0 0 Z M-12.40625 5.46875 C-12.5307986 7.11105364 -12.58193524 8.75927276 -12.59375 10.40625 C-12.60792969 11.30214844 -12.62210938 12.19804687 -12.63671875 13.12109375 C-12.63819769 15.65989534 -12.63819769 15.65989534 -10.40625 17.46875 C-7.98027049 17.74662668 -7.98027049 17.74662668 -5.1796875 17.6640625 C-4.1484375 17.65761719 -3.1171875 17.65117187 -2.0546875 17.64453125 C-0.97445313 17.62777344 0.10578125 17.61101563 1.21875 17.59375 C2.85070312 17.58021484 2.85070312 17.58021484 4.515625 17.56640625 C7.20855152 17.54278409 9.90104255 17.50984556 12.59375 17.46875 C10.70668973 22.13398234 8.61789745 26.18399758 5.84375 30.40625 C-0.08921631 39.91434944 -6.60419423 50.98798479 -6.40625 62.46875 C-3.80438892 65.07061108 -2.58270645 64.76685177 1.03125 64.78125 C1.99933594 64.79800781 2.96742187 64.81476563 3.96484375 64.83203125 C6.55195407 64.6572876 6.55195407 64.6572876 8.3046875 63.3984375 C10.18566782 60.58266695 10.90819969 57.51234487 11.78125 54.28125 C14.7655522 44.06499267 19.34540343 34.74049137 24.88671875 25.66796875 C30.40563182 16.71229264 30.40563182 16.71229264 30.59375 6.46875 C27.92478569 3.79978569 25.92251593 4.23050538 22.29417419 4.21650696 C21.00193687 4.22728523 21.00193687 4.22728523 19.68359375 4.23828125 C18.80095352 4.23873947 17.91831329 4.23919769 17.00892639 4.2396698 C15.14192359 4.24269313 13.27492333 4.25058183 11.40795898 4.26293945 C8.53946061 4.28119774 5.67128479 4.28344916 2.80273438 4.28320312 C0.99218469 4.28811812 -0.81836279 4.29394636 -2.62890625 4.30078125 C-3.49242203 4.30189407 -4.35593781 4.3030069 -5.24562073 4.30415344 C-9.13901857 3.95106406 -9.13901857 3.95106406 -12.40625 5.46875 Z " fill="#574F43" transform="translate(29.40625,3.53125)"/>
<path d="M0 0 C0.99 0.33 1.98 0.66 3 1 C3.06058594 1.63808594 3.12117188 2.27617187 3.18359375 2.93359375 C3.26738281 3.75988281 3.35117187 4.58617187 3.4375 5.4375 C3.51871094 6.26121094 3.59992187 7.08492187 3.68359375 7.93359375 C3.78930815 9.98662025 3.78930815 9.98662025 5 11 C6.70563778 11.15740605 8.41727244 11.25093392 10.12890625 11.31640625 C11.68061523 11.37924805 11.68061523 11.37924805 13.26367188 11.44335938 C14.35228516 11.48267578 15.44089844 11.52199219 16.5625 11.5625 C17.65498047 11.60568359 18.74746094 11.64886719 19.87304688 11.69335938 C22.58189564 11.79982068 25.29083992 11.90183516 28 12 C27.22100832 16.63800417 25.38992305 19.90303151 22.875 23.8125 C16.70252456 33.77826923 10 44.98644255 10 57 C11.73749107 58.73749107 14.01048482 58.294321 16.375 58.375 C19.33677324 58.42086141 19.33677324 58.42086141 22 58 C24.1349293 55.80359527 24.1349293 55.80359527 25 53 C26.6875 51.1875 26.6875 51.1875 28 50 C28.30769231 56.76923077 28.30769231 56.76923077 26 60 C22.80057577 62.01765492 20.24655484 62.27058547 16.5 62.25 C15.5615625 62.25515625 14.623125 62.2603125 13.65625 62.265625 C10.92541656 61.99254166 9.29397065 61.48065378 7 60 C4.8226794 55.6453588 6.41762412 49.83412579 7.83349609 45.375 C8.88213872 42.71356205 10.00846374 40.1062277 11.1875 37.5 C11.59025146 36.58452393 11.99300293 35.66904785 12.40795898 34.72583008 C15.18009854 28.5300954 18.14724129 22.60538621 22 17 C19.76013611 14.76013611 13.54163518 15.69818559 10.34570312 15.65820312 C6.63051726 15.52084028 4.58850187 15.42246686 1.5078125 13.2109375 C-0.87337887 9.71934601 -0.79974248 7.20540784 -1 3 C-0.67 2.01 -0.34 1.02 0 0 Z " fill="#4C4B48" transform="translate(14,9)"/>
<path d="M0 0 C0.33 0 0.66 0 1 0 C2.02090263 9.31301527 -0.47356122 15.08749867 -5.1875 23 C-6.35126834 25.01875534 -7.5114545 27.03958016 -8.66796875 29.0625 C-9.23088623 30.04371826 -9.79380371 31.02493652 -10.3737793 32.03588867 C-14.05180944 38.73983162 -17.18196839 45.56259797 -19 53 C-19.99 52.34 -20.98 51.68 -22 51 C-19.90177312 36.31241184 -10.28487424 22.68107738 -3 10 C-2.01 10 -1.02 10 0 10 C0 6.7 0 3.4 0 0 Z " fill="#524F4A" transform="translate(62,9)"/>
<path d="M0 0 C0.99 0.33 1.98 0.66 3 1 C3.06058594 1.63808594 3.12117188 2.27617187 3.18359375 2.93359375 C3.26738281 3.75988281 3.35117187 4.58617187 3.4375 5.4375 C3.51871094 6.26121094 3.59992187 7.08492187 3.68359375 7.93359375 C3.78930815 9.98662025 3.78930815 9.98662025 5 11 C6.70563778 11.15740605 8.41727244 11.25093392 10.12890625 11.31640625 C11.68061523 11.37924805 11.68061523 11.37924805 13.26367188 11.44335938 C14.35228516 11.48267578 15.44089844 11.52199219 16.5625 11.5625 C17.65498047 11.60568359 18.74746094 11.64886719 19.87304688 11.69335938 C22.58189564 11.79982068 25.29083992 11.90183516 28 12 C27.3791378 15.68297866 26.93325018 17.57688029 24 20 C23.67 18.68 23.34 17.36 23 16 C22.44538086 15.9906543 21.89076172 15.98130859 21.31933594 15.97167969 C18.79533519 15.91784278 16.27316186 15.83422746 13.75 15.75 C12.87730469 15.73582031 12.00460938 15.72164062 11.10546875 15.70703125 C4.6577621 15.46093558 4.6577621 15.46093558 1.44140625 13.20703125 C-0.84731273 9.70262414 -0.80140974 7.17039545 -1 3 C-0.67 2.01 -0.34 1.02 0 0 Z " fill="#21201D" transform="translate(14,9)"/>
<path d="M0 0 C0.33 0 0.66 0 1 0 C1.30769231 6.76923077 1.30769231 6.76923077 -1 10 C-4.28559786 12.10576954 -6.89707019 12.21673642 -10.75 12.125 C-11.73484375 12.10695313 -12.7196875 12.08890625 -13.734375 12.0703125 C-14.85585938 12.03550781 -14.85585938 12.03550781 -16 12 C-16 11.01 -16 10.02 -16 9 C-15.24074219 8.98582031 -14.48148438 8.97164062 -13.69921875 8.95703125 C-10.7243612 8.81426895 -7.91867039 8.6001408 -5 8 C-2.80921873 5.76795551 -2.80921873 5.76795551 -2 3 C-1.34 2.01 -0.68 1.02 0 0 Z " fill="#474747" transform="translate(41,59)"/>
<path d="M0 0 C0.97139115 3.33048393 1.34258928 6.66075957 1.74609375 10.09375 C2.01505985 12.11306468 2.42954568 14.04415662 3 16 C1.0625 15.625 1.0625 15.625 -1 15 C-2.28864145 12.42271711 -1.93455998 10.91128844 -1.625 8.0625 C-1.53476562 7.18722656 -1.44453125 6.31195313 -1.3515625 5.41015625 C-1 3 -1 3 0 0 Z " fill="#545352" transform="translate(22,54)"/>
<path d="M0 0 C1.32 0.66 2.64 1.32 4 2 C4 5.96 4 9.92 4 14 C3.34 14 2.68 14 2 14 C1.92652344 13.07767578 1.92652344 13.07767578 1.8515625 12.13671875 C1.77679688 11.32847656 1.70203125 10.52023437 1.625 9.6875 C1.55539063 8.88699219 1.48578125 8.08648437 1.4140625 7.26171875 C1.10435574 4.72775559 1.10435574 4.72775559 -1 2 C-0.67 1.34 -0.34 0.68 0 0 Z " fill="#32302D" transform="translate(58,5)"/>
<path d="M0 0 C0.33 0 0.66 0 1 0 C1.17615457 3.87540045 1.28341107 6.75515269 -1 10 C-1.99 10.33 -2.98 10.66 -4 11 C-4 5.95749572 -2.59750368 4.22094347 0 0 Z " fill="#383632" transform="translate(41,59)"/>
<path d="M0 0 C0.99 0.33 1.98 0.66 3 1 C3 3.97 3 6.94 3 10 C2.01 10.33 1.02 10.66 0 11 C-1.125 3.375 -1.125 3.375 0 0 Z " fill="#4C4741" transform="translate(14,9)"/>
<path d="M0 0 C0.33 0 0.66 0 1 0 C1.55353075 11.52164009 1.55353075 11.52164009 -2 17 C-4 14 -4 14 -3.625 11.8125 C-3.41875 11.214375 -3.2125 10.61625 -3 10 C-2.01 10 -1.02 10 0 10 C0 6.7 0 3.4 0 0 Z " fill="#706F6D" transform="translate(62,9)"/>
<path d="M0 0 C1.15957207 3.47871621 0.77456651 4.34219645 -0.4375 7.6875 C-0.86869141 8.89986328 -0.86869141 8.89986328 -1.30859375 10.13671875 C-1.53675781 10.75160156 -1.76492187 11.36648437 -2 12 C-2.66 12 -3.32 12 -4 12 C-3.91253716 10.56138706 -3.80434652 9.12402492 -3.6875 7.6875 C-3.62949219 6.88699219 -3.57148438 6.08648437 -3.51171875 5.26171875 C-2.91793306 2.63727666 -2.04219706 1.69179328 0 0 Z " fill="#292724" transform="translate(26,49)"/>
<path d="M0 0 C0.66 0.33 1.32 0.66 2 1 C1.67 3.31 1.34 5.62 1 8 C-0.32 8.33 -1.64 8.66 -3 9 C-2.44271087 5.65626525 -1.64826111 2.96687001 0 0 Z " fill="#464138" transform="translate(47,40)"/>
<path d="M0 0 C6.93 0 13.86 0 21 0 C20.67 0.99 20.34 1.98 20 3 C19.01 2.67 18.02 2.34 17 2 C15.66636297 1.85596652 14.32781954 1.75409577 12.98828125 1.68359375 C11.85229492 1.62075195 11.85229492 1.62075195 10.69335938 1.55664062 C9.51483398 1.49766602 9.51483398 1.49766602 8.3125 1.4375 C7.51521484 1.39431641 6.71792969 1.35113281 5.89648438 1.30664062 C3.93118553 1.20072632 1.96561504 1.09987449 0 1 C0 0.67 0 0.34 0 0 Z " fill="#8B8B8B" transform="translate(18,23)"/>
<path d="M0 0 C0.66 0.66 1.32 1.32 2 2 C1.625 4.625 1.625 4.625 1 7 C-0.65 7.33 -2.3 7.66 -4 8 C-2.87548273 5.0280615 -1.77706209 2.66559313 0 0 Z " fill="#6F6D69" transform="translate(36,26)"/>
<path d="M0 0 C-0.61277612 2.96175123 -1.25372522 4.38058783 -3 7 C-3.66 7 -4.32 7 -5 7 C-4.625 4.0625 -4.625 4.0625 -4 1 C-2 0 -2 0 0 0 Z " fill="#43423F" transform="translate(35,33)"/>
<path d="M0 0 C0.66 0 1.32 0 2 0 C1.25 6.75 1.25 6.75 -1 9 C-1.80967438 6.08517222 -2.21845993 4.53886783 -1.0625 1.6875 C-0.711875 1.130625 -0.36125 0.57375 0 0 Z " fill="#55534F" transform="translate(50,35)"/>
</svg>
