<?xml version="1.0" encoding="UTF-8"?>
<svg version="1.1" xmlns="http://www.w3.org/2000/svg" width="75" height="75">
<path d="M0 0 C3.6452958 3.28602386 5.31746701 6.26406076 6 11.1484375 C6.26513521 17.25483288 5.65362612 20.84377262 1.625 25.46484375 C0.965 26.12484375 0.305 26.78484375 -0.375 27.46484375 C0.553125 28.14546875 1.48125 28.82609375 2.4375 29.52734375 C6.47259757 32.94239087 8.24099664 36.56348504 8.94140625 41.85546875 C9.22645629 47.85071481 8.32503742 52.64859393 4.625 57.46484375 C-2.91430722 64.68332938 -10.37300207 65.95017313 -20.609375 65.76953125 C-28.1326859 65.16079863 -33.29546468 63.03278502 -38.4375 57.46484375 C-43.14591066 51.79259373 -42.95417331 45.59074396 -42.375 38.46484375 C-40.83379978 34.22654314 -38.83370175 31.36569038 -35.375 28.46484375 C-34.715 28.46484375 -34.055 28.46484375 -33.375 28.46484375 C-34.00728516 27.7378125 -34.00728516 27.7378125 -34.65234375 26.99609375 C-37.8595442 23.07198968 -40.32362295 19.77722908 -40.609375 14.61328125 C-40.00142218 9.04038037 -37.91118369 4.0840644 -34.0625 0.02734375 C-23.18132264 -6.29892216 -10.69320422 -7.68574053 0 0 Z M-22.375 12.46484375 C-22.70833333 15.46484375 -22.70833333 15.46484375 -22.375 18.46484375 C-20.49361241 20.75414611 -20.49361241 20.75414611 -17.4375 20.83984375 C-14.33772019 20.75053244 -14.33772019 20.75053244 -12.4375 18.77734375 C-11.10525566 15.87775312 -11.40423897 14.45802359 -12.375 11.46484375 C-13.54536305 10.07196569 -13.54536305 10.07196569 -16.8125 10.27734375 C-20.42532721 10.06919447 -20.42532721 10.06919447 -22.375 12.46484375 Z M-22.375 35.46484375 C-24.91087563 39.26865719 -24.97092661 42.0047055 -24.375 46.46484375 C-22.86767726 48.9241598 -21.74221446 49.32589774 -19.0625 50.33984375 C-15.44743186 50.50798645 -13.42236968 49.3348206 -10.375 47.46484375 C-8.97042263 44.65568901 -9.12604843 42.57673841 -9.375 39.46484375 C-10.49199839 37.21670769 -10.49199839 37.21670769 -12.375 35.46484375 C-14.80822825 34.87054817 -14.80822825 34.87054817 -17.4375 35.02734375 C-18.75427734 35.02927734 -18.75427734 35.02927734 -20.09765625 35.03125 C-21.22494141 35.24587891 -21.22494141 35.24587891 -22.375 35.46484375 Z " fill="#ACD4BA" transform="translate(54.375,6.53515625)"/>
<path d="M0 0 C0.33 0 0.66 0 1 0 C1.07476563 0.66386719 1.14953125 1.32773437 1.2265625 2.01171875 C2.13350494 8.35948653 2.13350494 8.35948653 6.125 13.125 C7.07375 13.74375 8.0225 14.3625 9 15 C7.66195697 19.01412909 5.47584633 19.73005954 2 22 C-1.1375059 26.70625885 -1.65700641 32.53461323 -0.6015625 38.1015625 C1.40536479 43.46123891 5.24583367 46.66266287 10.30078125 49.1171875 C18.12127344 51.6749751 26.75019455 50.62490273 34 47 C38.64395506 44.11042796 40.35429526 41.19696235 42 36 C42.8232231 30.90003249 42.12908113 26.9186677 39.35546875 22.54296875 C36.98536199 19.8450086 34.21548878 18.54590807 31 17 C31 16.34 31 15.68 31 15 C32.47075728 13.72534369 33.94688798 12.45536996 35.46875 11.2421875 C37.09939922 9.96323101 37.09939922 9.96323101 38.8125 8.1875 C39.4003125 7.5996875 39.4003125 7.5996875 40 7 C40.33 7 40.66 7 41 7 C41.25 9.25 41.25 9.25 41 12 C39 14.3125 39 14.3125 37 16 C37.928125 16.680625 38.85625 17.36125 39.8125 18.0625 C43.84759757 21.47754712 45.61599664 25.09864129 46.31640625 30.390625 C46.60145629 36.38587106 45.70003742 41.18375018 42 46 C34.46069278 53.21848563 27.00199793 54.48532938 16.765625 54.3046875 C9.2423141 53.69595488 4.07953532 51.56794127 -1.0625 46 C-5.77091066 40.32774998 -5.57917331 34.12590021 -5 27 C-3.45879978 22.76169939 -1.45870175 19.90084663 2 17 C2.66 17 3.32 17 4 17 C3.566875 16.50371094 3.13375 16.00742187 2.6875 15.49609375 C-0.24313849 11.92098615 -1.89591149 9.80668593 -2.5 5.125 C-2 2 -2 2 0 0 Z " fill="#4D5252" transform="translate(17,18)"/>
<path d="M0 0 C0.33 0 0.66 0 1 0 C1.25 2.25 1.25 2.25 1 5 C-1 7.3125 -1 7.3125 -3 9 C-2.071875 9.680625 -1.14375 10.36125 -0.1875 11.0625 C3.84759757 14.47754712 5.61599664 18.09864129 6.31640625 23.390625 C6.60091466 29.37447937 5.71049152 34.20000128 2 39 C-2.54231229 43.19501276 -6.66884597 46.14534702 -13.01171875 46.09765625 C-14.14770508 46.09282227 -14.14770508 46.09282227 -15.30664062 46.08789062 C-16.48516602 46.07532227 -16.48516602 46.07532227 -17.6875 46.0625 C-18.48478516 46.05798828 -19.28207031 46.05347656 -20.10351562 46.04882812 C-22.06904257 46.0370585 -24.03453085 46.01912348 -26 46 C-26.33 45.34 -26.66 44.68 -27 44 C-25.7315625 43.94392578 -25.7315625 43.94392578 -24.4375 43.88671875 C-15.57907642 43.37333284 -7.51541159 42.70156621 -1 36 C1.76629396 31.03974877 2.96790804 26.58746915 2 21 C0.47851206 16.5442139 -1.67803659 13.91647479 -5.75 11.5625 C-6.8225 11.046875 -7.895 10.53125 -9 10 C-9 9.34 -9 8.68 -9 8 C-7.52924272 6.72534369 -6.05311202 5.45536996 -4.53125 4.2421875 C-2.90060078 2.96323101 -2.90060078 2.96323101 -1.1875 1.1875 C-0.795625 0.795625 -0.40375 0.40375 0 0 Z " fill="#3D4343" transform="translate(57,25)"/>
<path d="M0 0 C2.39077136 2.04324069 3.50892367 3.31422976 4.55859375 6.33203125 C4.78251812 10.01376454 4.73274018 13.64915684 4.55859375 17.33203125 C3.89859375 17.33203125 3.23859375 17.33203125 2.55859375 17.33203125 C2.460625 16.66816406 2.36265625 16.00429688 2.26171875 15.3203125 C1.36379619 10.01792499 0.67213011 6.10277291 -3.44140625 2.33203125 C-10.35818525 -1.77012772 -17.9344233 -1.79567857 -25.73046875 -0.19921875 C-30.77668263 1.66810269 -34.07835686 5.60593247 -36.44140625 10.33203125 C-37.10140625 10.33203125 -37.76140625 10.33203125 -38.44140625 10.33203125 C-37.98713029 5.44856464 -36.86797792 2.85378546 -33.44140625 -0.66796875 C-24.03124083 -8.14074717 -9.37431915 -6.76276246 0 0 Z " fill="#2D3333" transform="translate(54.44140625,6.66796875)"/>
<path d="M0 0 C2.6258382 1.78870171 3.34201385 3.11189509 5 6 C5.8063677 10.51565913 5.34922928 12.39166513 3.0625 16.375 C0.17362223 19.44494704 -2.73075246 19.97712865 -6.84765625 20.17578125 C-9.90479823 19.92610541 -11.67756747 18.97054881 -14 17 C-16.66836411 12.99745384 -16.8340238 9.70686701 -16 5 C-11.24003429 -1.01258826 -7.23359582 -2.00794642 0 0 Z M-11 2 C-13.53587563 5.80381344 -13.59592661 8.53986175 -13 13 C-11.49267726 15.45931605 -10.36721446 15.86105399 -7.6875 16.875 C-4.07243186 17.0431427 -2.04736968 15.86997685 1 14 C2.40457737 11.19084526 2.24895157 9.11189466 2 6 C0.88300161 3.75186394 0.88300161 3.75186394 -1 2 C-3.43322825 1.40570442 -3.43322825 1.40570442 -6.0625 1.5625 C-7.37927734 1.56443359 -7.37927734 1.56443359 -8.72265625 1.56640625 C-9.84994141 1.78103516 -9.84994141 1.78103516 -11 2 Z " fill="#2E3536" transform="translate(43,40)"/>
<path d="M0 0 C3.0625 2.0625 3.0625 2.0625 5 5 C5.15129568 9.31192698 4.70478473 11.21466844 1.8125 14.4375 C-1.56275179 16.31263988 -3.2007634 16.71235686 -7 16 C-9.875 13.9375 -9.875 13.9375 -12 11 C-12.62491523 7.04220351 -12.61006839 4.99136114 -10.5 1.5625 C-7.02348669 -0.61032082 -3.92483969 -0.88425242 0 0 Z M-9 5 C-9.33333333 8 -9.33333333 8 -9 11 C-7.11861241 13.28930236 -7.11861241 13.28930236 -4.0625 13.375 C-0.96272019 13.28568869 -0.96272019 13.28568869 0.9375 11.3125 C2.26974434 8.41290937 1.97076103 6.99317984 1 4 C-0.17036305 2.60712194 -0.17036305 2.60712194 -3.4375 2.8125 C-7.05032721 2.60435072 -7.05032721 2.60435072 -9 5 Z " fill="#2A3031" transform="translate(41,14)"/>
<path d="M0 0 C0.33 0 0.66 0 1 0 C1.07476563 0.66386719 1.14953125 1.32773437 1.2265625 2.01171875 C2.13350494 8.35948653 2.13350494 8.35948653 6.125 13.125 C7.07375 13.74375 8.0225 14.3625 9 15 C7.46988182 19.59035454 3.77263629 21.06703353 -0.375 23.25 C-0.91125 23.4975 -1.4475 23.745 -2 24 C-1.4409112 20.75728494 -0.5867822 19.06942576 2 17 C2.66 17 3.32 17 4 17 C3.566875 16.50371094 3.13375 16.00742187 2.6875 15.49609375 C-0.24313849 11.92098615 -1.89591149 9.80668593 -2.5 5.125 C-2 2 -2 2 0 0 Z " fill="#2E3435" transform="translate(17,18)"/>
<path d="M0 0 C0 0.33 0 0.66 0 1 C-4.62 1.33 -9.24 1.66 -14 2 C-14 2.66 -14 3.32 -14 4 C-15.051875 4.37125 -16.10375 4.7425 -17.1875 5.125 C-21.90812703 7.12623945 -24.70019286 10.40038571 -27 15 C-27.66 15 -28.32 15 -29 15 C-28.54572404 10.11653339 -27.42657167 7.52175421 -24 4 C-17.08593076 -1.4905844 -8.28674373 -1.33657157 0 0 Z " fill="#404546" transform="translate(45,2)"/>
<path d="M0 0 C0.33 0.99 0.66 1.98 1 3 C1.66 3 2.32 3 3 3 C1.80930113 6.38891216 0.79980145 8.71510456 -2 11 C-6.35724367 12.28922191 -9.93389114 12.50041845 -14.0625 10.5625 C-14.701875 10.046875 -15.34125 9.53125 -16 9 C-15.34 7.68 -14.68 6.36 -14 5 C-13.319375 5.53625 -12.63875 6.0725 -11.9375 6.625 C-8.97627283 8.3260619 -8.97627283 8.3260619 -5.3125 7.5625 C-1.73659163 6.30998245 -1.73659163 6.30998245 -0.5625 2.875 C-0.376875 1.92625 -0.19125 0.9775 0 0 Z " fill="#2B3433" transform="translate(45,48)"/>
<path d="M0 0 C0.33 0.66 0.66 1.32 1 2 C1.66 2.33 2.32 2.66 3 3 C2.9278125 3.75925781 2.855625 4.51851562 2.78125 5.30078125 C2.6884375 6.29464844 2.595625 7.28851563 2.5 8.3125 C2.4071875 9.29863281 2.314375 10.28476562 2.21875 11.30078125 C1.95961143 14.04702139 1.95961143 14.04702139 2 17 C0.68 16.67 -0.64 16.34 -2 16 C-2.05449838 14.27119018 -2.09301688 12.54187288 -2.125 10.8125 C-2.14820313 9.84957031 -2.17140625 8.88664062 -2.1953125 7.89453125 C-1.9913544 4.87187222 -1.26874632 2.73230015 0 0 Z " fill="#404646" transform="translate(14,40)"/>
<path d="M0 0 C0.33 0 0.66 0 1 0 C1.20625 0.928125 1.4125 1.85625 1.625 2.8125 C2.74446192 6.26004095 2.74446192 6.26004095 6.125 7.875 C7.07375 8.24625 8.0225 8.6175 9 9 C9 9.66 9 10.32 9 11 C2.56985294 10.51470588 2.56985294 10.51470588 0.0625 8.25 C-1.17893286 5.62108336 -1.31080287 3.87492653 -1 1 C-0.67 0.67 -0.34 0.34 0 0 Z " fill="#202627" transform="translate(30,19)"/>
<path d="M0 0 C-0.33 0.66 -0.66 1.32 -1 2 C-5.95 2 -10.9 2 -16 2 C-16.33 1.34 -16.66 0.68 -17 0 C-14.9174133 -0.19561869 -12.83388144 -0.38119313 -10.75 -0.5625 C-9.58984375 -0.66691406 -8.4296875 -0.77132812 -7.234375 -0.87890625 C-4.48128523 -0.98198087 -2.580018 -0.86213473 0 0 Z " fill="#192021" transform="translate(47,69)"/>
<path d="M0 0 C0.33 0.99 0.66 1.98 1 3 C1.66 3 2.32 3 3 3 C1.82744291 6.33727786 0.81131596 8.77437487 -2 11 C-2.66 11 -3.32 11 -4 11 C-4 10.34 -4 9.68 -4 9 C-4.99 8.67 -5.98 8.34 -7 8 C-6.21625 7.79375 -5.4325 7.5875 -4.625 7.375 C-1.69083714 6.19323388 -1.69083714 6.19323388 -0.6875 2.875 C-0.460625 1.92625 -0.23375 0.9775 0 0 Z " fill="#464B4B" transform="translate(45,48)"/>
<path d="M0 0 C0.99 0.33 1.98 0.66 3 1 C3 4.3 3 7.6 3 11 C2.01 11 1.02 11 0 11 C0 7.37 0 3.74 0 0 Z " fill="#3C4042" transform="translate(60,45)"/>
<path d="M0 0 C3.82524236 1.450954 5.19090966 3.38181932 7 7 C7 7.66 7 8.32 7 9 C6.01 9.33 5.02 9.66 4 10 C0 3.375 0 3.375 0 0 Z " fill="#2E3435" transform="translate(55,36)"/>
<path d="M0 0 C0.66 0 1.32 0 2 0 C3.32229189 2.64458379 3.09677194 4.67761301 3.0625 7.625 C3.05347656 8.62789062 3.04445313 9.63078125 3.03515625 10.6640625 C3.02355469 11.43492188 3.01195312 12.20578125 3 13 C2.34 13 1.68 13 1 13 C0.63901937 11.02206479 0.28638652 9.04260427 -0.0625 7.0625 C-0.25972656 5.96035156 -0.45695312 4.85820312 -0.66015625 3.72265625 C-0.77230469 2.82417969 -0.88445313 1.92570313 -1 1 C-0.67 0.67 -0.34 0.34 0 0 Z " fill="#262B2C" transform="translate(56,11)"/>
<path d="M0 0 C2.31 0.66 4.62 1.32 7 2 C7 2.33 7 2.66 7 3 C4.69 3.66 2.38 4.32 0 5 C-0.33 6.65 -0.66 8.3 -1 10 C-1.99 8.68 -2.98 7.36 -4 6 C-2.84826645 3.53199953 -1.95216435 1.95216435 0 0 Z " fill="#4E5354" transform="translate(33,14)"/>
<path d="M0 0 C3.16115776 1.36983503 3.9927092 1.9890638 6 5 C6.125 7.6875 6.125 7.6875 6 10 C5.34 10 4.68 10 4 10 C3.32845067 8.71086513 2.66291141 7.41859796 2 6.125 C1.62875 5.40570313 1.2575 4.68640625 0.875 3.9453125 C0 2 0 2 0 0 Z " fill="#1B2122" transform="translate(42,41)"/>
<path d="M0 0 C1.98 0.99 3.96 1.98 6 3 C4.68 3.99 3.36 4.98 2 6 C1.01 5.34 0.02 4.68 -1 4 C-0.67 2.68 -0.34 1.36 0 0 Z " fill="#454C4B" transform="translate(30,53)"/>
<path d="M0 0 C0.33 0 0.66 0 1 0 C1.33 2.97 1.66 5.94 2 9 C1.01 8.67 0.02 8.34 -1 8 C-1.04241723 5.66705225 -1.04092937 3.33297433 -1 1 C-0.67 0.67 -0.34 0.34 0 0 Z " fill="#1A2122" transform="translate(28,46)"/>
</svg>
