<?xml version="1.0" encoding="UTF-8"?>
<svg version="1.1" xmlns="http://www.w3.org/2000/svg" width="75" height="75">
<path d="M0 0 C5.58137677 3.55480544 8.62947006 7.88830196 11 14 C11.53560547 15.32837891 11.53560547 15.32837891 12.08203125 16.68359375 C15.48463409 28.97640146 13.54649791 43.54226827 7.57421875 54.65234375 C3.4524469 61.22374745 -1.40920842 65.78423221 -9 68 C-18.10366936 69.83192118 -25.19505455 68.4914532 -33.375 64.25 C-36.56044655 61.51961724 -38.65292716 58.99938397 -40 55 C-40 51.05816593 -39.56041173 48.8742423 -37.4375 45.5625 C-34.59710217 43.74173216 -32.33086282 43.37845145 -28.96484375 43.53515625 C-25.66590351 44.31562124 -24.06929378 46.44381356 -22 49 C-20.12575284 51.280721 -20.12575284 51.280721 -17.125 51.375 C-13.94238137 51.2654521 -13.94238137 51.2654521 -11.75 49.25 C-10.16854073 47.21669523 -9.01171454 45.36066727 -8 43 C-8.99 43.495 -8.99 43.495 -10 44 C-19.04576376 44.85107992 -26.49986537 44.43653023 -34 39 C-38.05090742 35.34173373 -40.61955642 31.27181481 -41.25390625 25.81640625 C-41.61375982 18.37556304 -39.94736804 11.99345462 -35.4921875 5.95703125 C-26.25677462 -4.1160121 -12.18814943 -6.21126846 0 0 Z M-18.75 14.5 C-21.13951137 17.15501263 -21.37563106 17.68588316 -21.5 21.0625 C-21.24889348 24.7780278 -21.24889348 24.7780278 -20 27 C-16.73916234 28.63041883 -13.55761554 28.65964122 -10 28 C-7.34343968 25.84154474 -7.07095411 24.41685537 -6.5 21.0625 C-7.17282072 16.94147307 -8.73993761 15.51913912 -12 13 C-15.93681812 12.68076525 -15.93681812 12.68076525 -18.75 14.5 Z " fill="#CDB4E5" transform="translate(52,4)"/>
<path d="M0 0 C5.58137677 3.55480544 8.62947006 7.88830196 11 14 C11.53560547 15.32837891 11.53560547 15.32837891 12.08203125 16.68359375 C15.48463409 28.97640146 13.54649791 43.54226827 7.57421875 54.65234375 C3.4524469 61.22374745 -1.40920842 65.78423221 -9 68 C-17.86190271 69.78327075 -25.76260089 68.85226724 -33.5 64 C-36 62 -36 62 -38 59 C-38.07905064 56.66800612 -38.08798769 54.33167378 -38 52 C-37.34 52.99 -36.68 53.98 -36 55 C-32.64330761 59.47558986 -30.31750732 61.84797351 -25 64 C-22.26574733 64.33686891 -19.84956826 64.52482155 -17.125 64.5 C-16.41827148 64.49572998 -15.71154297 64.49145996 -14.98339844 64.48706055 C-7.53107378 64.24375092 -3.83034218 61.83034218 1.25 56.75 C8.23950519 45.76649185 10.68080304 33.60129954 8.4296875 20.7421875 C6.93062573 14.31989127 5.57219366 9.00059507 0.1875 4.8125 C-6.68450267 0.90489064 -13.44332319 -0.25663362 -21.2109375 1.5 C-27.32874835 3.56271017 -32.07787972 6.98761603 -35.375 12.625 C-37.91503529 18.3052477 -38.32731954 24.48201591 -36.1171875 30.33984375 C-33.94574291 34.20098861 -31.27407115 37.37545932 -27.22265625 39.37890625 C-21.00435986 41.11653213 -14.31105485 40.95629856 -8.375 38.5 C-7.59125 38.005 -6.8075 37.51 -6 37 C-5.01 37 -4.02 37 -3 37 C-3.33 39.31 -3.66 41.62 -4 44 C-4.99 44.33 -5.98 44.66 -7 45 C-7 44.01 -7 43.02 -7 42 C-7.99 42 -8.98 42 -10 42 C-10 42.66 -10 43.32 -10 44 C-19.13182356 44.59212112 -26.40013287 44.50882209 -34 39 C-38.05090742 35.34173373 -40.61955642 31.27181481 -41.25390625 25.81640625 C-41.61375982 18.37556304 -39.94736804 11.99345462 -35.4921875 5.95703125 C-26.25677462 -4.1160121 -12.18814943 -6.21126846 0 0 Z " fill="#4D4C4E" transform="translate(52,4)"/>
<path d="M0 0 C0 0.66 0 1.32 0 2 C-0.99 1.96519531 -1.98 1.93039062 -3 1.89453125 C-12.02916904 1.66928795 -18.52602546 1.98867098 -26.25 7.1875 C-31.06849411 12.11550534 -33.20711983 16.56528433 -33.5625 23.5 C-33.32965857 29.09595577 -31.78828447 32.88229949 -28 37 C-22.64940346 41.45883045 -17.89306381 41.53668381 -11.03515625 41.33984375 C-7.49876804 40.9438775 -5.00010862 39.89480545 -2 38 C-1.01 38 -0.02 38 1 38 C0.67 40.31 0.34 42.62 0 45 C-0.99 45.33 -1.98 45.66 -3 46 C-3 45.01 -3 44.02 -3 43 C-3.99 43 -4.98 43 -6 43 C-6 43.66 -6 44.32 -6 45 C-15.13182356 45.59212112 -22.40013287 45.50882209 -30 40 C-34.05090742 36.34173373 -36.61955642 32.27181481 -37.25390625 26.81640625 C-37.61375982 19.37556304 -35.94736804 12.99345462 -31.4921875 6.95703125 C-23.29016965 -1.98889054 -11.27401233 -5.1432538 0 0 Z " fill="#2D2D2E" transform="translate(48,3)"/>
<path d="M0 0 C4.17636392 0.26966588 7.23399016 0.53989616 10.171875 3.71484375 C12.4299495 7.64826385 12.75859062 9.62648636 12.109375 14.08984375 C10.45798195 17.62854315 9.39332271 18.90054528 6.109375 21.08984375 C-0.83740371 21.76211266 -0.83740371 21.76211266 -4.828125 19.21484375 C-8.21293486 15.72746389 -8.27662322 13.05397437 -8.25390625 8.3515625 C-7.6825133 4.79418058 -5.6394221 3.23524637 -2.890625 1.08984375 C-1.890625 0.08984375 -1.890625 0.08984375 0 0 Z M-2.640625 4.58984375 C-5.03013637 7.24485638 -5.26625606 7.77572691 -5.390625 11.15234375 C-5.13951848 14.86787155 -5.13951848 14.86787155 -3.890625 17.08984375 C-0.62978734 18.72026258 2.55175946 18.74948497 6.109375 18.08984375 C8.76593532 15.93138849 9.03842089 14.50669912 9.609375 11.15234375 C8.93655428 7.03131682 7.36943739 5.60898287 4.109375 3.08984375 C0.17255688 2.770609 0.17255688 2.770609 -2.640625 4.58984375 Z " fill="#242326" transform="translate(35.890625,13.91015625)"/>
<path d="M0 0 C3.29894024 0.78046499 4.89554997 2.90865731 6.96484375 5.46484375 C8.83909091 7.74556475 8.83909091 7.74556475 11.83984375 7.83984375 C15.66150709 7.38124415 16.4413507 6.24068611 18.96484375 3.46484375 C21.21484375 2.71484375 21.21484375 2.71484375 22.96484375 2.46484375 C22.71993665 5.77108957 21.68762037 6.75526824 19.33984375 9.21484375 C16.91919511 11.05914747 15.68788486 11.52639017 12.58984375 12.21484375 C8.01432155 11.26818398 6.18998425 9.19270983 2.8828125 6.0390625 C0.94147769 4.19917257 0.94147769 4.19917257 -2.28515625 3.77734375 C-5.59060268 4.60370536 -6.91036039 5.84971038 -9.03515625 8.46484375 C-9.78515625 6.71484375 -9.78515625 6.71484375 -10.03515625 4.46484375 C-7.47122534 0.45173451 -4.69333342 -0.21849783 0 0 Z " fill="#2E2D2F" transform="translate(23.03515625,47.53515625)"/>
<path d="M0 0 C2.96855319 0.47496851 4.41328438 1.29017839 6.9375 3.0625 C12.16632646 6.1635789 18.13472585 5.65672954 24 5 C27.5047765 3.67014431 27.5047765 3.67014431 30 2 C30.99 2 31.98 2 33 2 C32.67 4.31 32.34 6.62 32 9 C31.01 9.33 30.02 9.66 29 10 C29 9.01 29 8.02 29 7 C28.01 7 27.02 7 26 7 C26 7.66 26 8.32 26 9 C17.13087481 9.57508737 9.28084954 9.71636947 2 4 C0.734375 1.828125 0.734375 1.828125 0 0 Z " fill="#1E1D1E" transform="translate(16,39)"/>
<path d="M0 0 C1.4540625 0.0309375 1.4540625 0.0309375 2.9375 0.0625 C2.9375 1.0525 2.9375 2.0425 2.9375 3.0625 C1.2359375 3.7740625 1.2359375 3.7740625 -0.5 4.5 C-3.81990166 5.69872083 -3.81990166 5.69872083 -5.0625 7.0625 C-5.29168242 11.07907143 -5.29168242 11.07907143 -5.0625 15.0625 C-2.4970406 17.6279594 -0.58563332 17.60296087 2.9375 18.0625 C2.9375 18.3925 2.9375 18.7225 2.9375 19.0625 C1.2875 19.0625 -0.3625 19.0625 -2.0625 19.0625 C-2.3925 19.7225 -2.7225 20.3825 -3.0625 21.0625 C-8.84955425 16.61091981 -8.84955425 16.61091981 -9.3359375 13.07421875 C-9.53407651 8.53988373 -9.59406961 6.71673952 -6.625 3.0625 C-5.779375 2.4025 -4.93375 1.7425 -4.0625 1.0625 C-3.0625 0.0625 -3.0625 0.0625 0 0 Z " fill="#3C3A3E" transform="translate(37.0625,13.9375)"/>
<path d="M0 0 C0.99 1.485 0.99 1.485 2 3 C5.90873171 8.56698153 9.71211996 10.59108721 16 13 C16.66 13.33 17.32 13.66 18 14 C18 14.66 18 15.32 18 16 C11.53048701 15.65341895 7.07187129 14.1194072 2 10 C-0.4294516 6.3558226 -0.16179575 4.28758728 0 0 Z " fill="#222223" transform="translate(14,56)"/>
<path d="M0 0 C0.99 0.33 1.98 0.66 3 1 C3 1.66 3 2.32 3 3 C-2.946072 6.03910346 -8.36906706 6.65226572 -15 7 C-15 6.01 -15 5.02 -15 4 C-15.66 3.67 -16.32 3.34 -17 3 C-16.10796875 2.95101562 -15.2159375 2.90203125 -14.296875 2.8515625 C-12.54117188 2.73941406 -12.54117188 2.73941406 -10.75 2.625 C-9.00976562 2.52058594 -9.00976562 2.52058594 -7.234375 2.4140625 C-4.23675428 2.03030912 -2.62377715 1.33510784 0 0 Z " fill="#38353A" transform="translate(47,66)"/>
<path d="M0 0 C-0.33 2.31 -0.66 4.62 -1 7 C-1.99 7.33 -2.98 7.66 -4 8 C-4 7.01 -4 6.02 -4 5 C-4.99 5.33 -5.98 5.66 -7 6 C-8.89470816 6.0685495 -10.7916834 6.08480372 -12.6875 6.0625 C-13.68136719 6.05347656 -14.67523438 6.04445313 -15.69921875 6.03515625 C-16.83810547 6.01775391 -16.83810547 6.01775391 -18 6 C-18 5.67 -18 5.34 -18 5 C-17.12988281 4.83564453 -17.12988281 4.83564453 -16.2421875 4.66796875 C-10.7555448 3.55434325 -5.36320002 0 0 0 Z " fill="#1B191C" transform="translate(49,41)"/>
<path d="M0 0 C2 2 2 2 2.22705078 3.97119141 C2.21657715 4.75671387 2.20610352 5.54223633 2.1953125 6.3515625 C2.18886719 7.20234375 2.18242188 8.053125 2.17578125 8.9296875 C2.15902344 9.81914063 2.14226562 10.70859375 2.125 11.625 C2.11597656 12.5221875 2.10695313 13.419375 2.09765625 14.34375 C2.0740497 16.56276586 2.0411231 18.78125077 2 21 C1.01 21.33 0.02 21.66 -1 22 C-0.67 14.74 -0.34 7.48 0 0 Z " fill="#060606" transform="translate(62,23)"/>
<path d="M0 0 C0.70189453 0.00451172 1.40378906 0.00902344 2.12695312 0.01367188 C3.85550538 0.02543073 5.58401365 0.04336546 7.3125 0.0625 C7.6425 1.0525 7.9725 2.0425 8.3125 3.0625 C1.7125 3.0625 -4.8875 3.0625 -11.6875 3.0625 C-9.53214726 -1.24820549 -4.20651089 -0.05105942 0 0 Z " fill="#121112" transform="translate(39.6875,1.9375)"/>
<path d="M0 0 C0.33 0 0.66 0 1 0 C1.60550459 7.26605505 1.60550459 7.26605505 -1.0625 10.5 C-4.6042264 12.30854114 -7.07443924 12.30788712 -11 12 C-11 11.34 -11 10.68 -11 10 C-9.3603125 9.62875 -9.3603125 9.62875 -7.6875 9.25 C-3.88668091 7.96158675 -2.82618485 7.44946027 -1 4 C-0.29485154 1.85266073 -0.29485154 1.85266073 0 0 Z " fill="#141415" transform="translate(46,23)"/>
<path d="M0 0 C0 0.33 0 0.66 0 1 C-0.75925781 1.06058594 -1.51851562 1.12117187 -2.30078125 1.18359375 C-3.29464844 1.26738281 -4.28851563 1.35117187 -5.3125 1.4375 C-6.29863281 1.51871094 -7.28476562 1.59992187 -8.30078125 1.68359375 C-11.09375599 1.91812559 -11.09375599 1.91812559 -14 3 C-13.67 3.66 -13.34 4.32 -13 5 C-17.455 6.485 -17.455 6.485 -22 8 C-20.20125909 4.08509332 -18.32272001 2.05456716 -14.25 0.4921875 C-9.56845087 -0.53190137 -4.76122523 -0.2110888 0 0 Z " fill="#4B4A4C" transform="translate(43,1)"/>
<path d="M0 0 C0.33 0.99 0.66 1.98 1 3 C-1.31 4.98 -3.62 6.96 -6 9 C-6.33 8.34 -6.66 7.68 -7 7 C-8.65 7 -10.3 7 -12 7 C-12 6.67 -12 6.34 -12 6 C-10.88625 5.731875 -9.7725 5.46375 -8.625 5.1875 C-4.78159049 4.34190981 -4.78159049 4.34190981 -3 1 C-2.01 0.67 -1.02 0.34 0 0 Z " fill="#353435" transform="translate(45,50)"/>
<path d="M0 0 C0.33 0 0.66 0 1 0 C1.12375 1.11375 1.2475 2.2275 1.375 3.375 C1.6465813 7.03103677 1.6465813 7.03103677 4 9 C5.98821313 9.39764263 7.98944339 9.73775349 10 10 C10 10.33 10 10.66 10 11 C8.35 11 6.7 11 5 11 C4.67 11.66 4.34 12.32 4 13 C1.4375 11.5625 1.4375 11.5625 -1 9 C-1.1493847 5.90026751 -0.65273326 3.02454618 0 0 Z " fill="#474647" transform="translate(30,22)"/>
<path d="M0 0 C3.93673644 1.31224548 6.22719294 2.91910327 9 6 C7.25 6.6875 7.25 6.6875 5 7 C2.9375 5.6875 2.9375 5.6875 1 4 C0.01 3.34 -0.98 2.68 -2 2 C-1.34 2 -0.68 2 0 2 C0 1.34 0 0.68 0 0 Z " fill="#3C3B3E" transform="translate(48,3)"/>
<path d="M0 0 C1.7492214 -0.08142927 3.49954542 -0.13938541 5.25 -0.1875 C6.22453125 -0.22230469 7.1990625 -0.25710937 8.203125 -0.29296875 C11 0 11 0 15 3 C10.38 3 5.76 3 1 3 C0.67 2.01 0.34 1.02 0 0 Z " fill="#3C3A3D" transform="translate(27,45)"/>
<path d="M0 0 C2.97 0.99 5.94 1.98 9 3 C9 3.66 9 4.32 9 5 C6.25 5.25 6.25 5.25 3 5 C0.625 3 0.625 3 -1 1 C-0.67 0.67 -0.34 0.34 0 0 Z " fill="#161516" transform="translate(29,54)"/>
<path d="M0 0 C0.66 0 1.32 0 2 0 C1.67 2.31 1.34 4.62 1 7 C-0.32 7.33 -1.64 7.66 -3 8 C-2.25 2.25 -2.25 2.25 0 0 Z " fill="#3A393B" transform="translate(62,44)"/>
<path d="M0 0 C1.89213369 2.38573379 3.02391783 4.07175348 4 7 C3.01 7.33 2.02 7.66 1 8 C-0.5625 5.625 -0.5625 5.625 -2 3 C-1 1 -1 1 0 0 Z " fill="#353436" transform="translate(14,32)"/>
<path d="M0 0 C0.66 0 1.32 0 2 0 C1.67 3.3 1.34 6.6 1 10 C0.34 10 -0.32 10 -1 10 C-1.02689216 8.52093108 -1.04634621 7.04172517 -1.0625 5.5625 C-1.07410156 4.73878906 -1.08570312 3.91507813 -1.09765625 3.06640625 C-1 1 -1 1 0 0 Z " fill="#0D0C0D" transform="translate(29,19)"/>
<path d="M0 0 C0.33 0 0.66 0 1 0 C1 2.64 1 5.28 1 8 C0.01 8.33 -0.98 8.66 -2 9 C-1.125 1.125 -1.125 1.125 0 0 Z " fill="#111012" transform="translate(63,36)"/>
<path d="M0 0 C0 0.66 0 1.32 0 2 C-3.3 2.33 -6.6 2.66 -10 3 C-8.0130571 -0.97388579 -3.91761109 -0.08705802 0 0 Z " fill="#0B0A0B" transform="translate(38,2)"/>
<path d="M0 0 C-0.33 0.99 -0.66 1.98 -1 3 C-4.63 3 -8.26 3 -12 3 C-12 2.67 -12 2.34 -12 2 C-10.56342755 1.66269158 -9.12569907 1.33030409 -7.6875 1 C-6.88699219 0.814375 -6.08648437 0.62875 -5.26171875 0.4375 C-3 0 -3 0 0 0 Z " fill="#080808" transform="translate(43,44)"/>
<path d="M0 0 C2.475 0.495 2.475 0.495 5 1 C5.33 1.99 5.66 2.98 6 4 C4.68 4 3.36 4 2 4 C1.34 2.68 0.68 1.36 0 0 Z " fill="#29292A" transform="translate(54,9)"/>
</svg>
