<?xml version="1.0" encoding="iso-8859-1"?>
<!-- Generator: Adobe Illustrator 19.0.0, SVG Export Plug-In . SVG Version: 6.00 Build 0)  -->
<svg version="1.1" id="Capa_1" xmlns="http://www.w3.org/2000/svg" xmlns:xlink="http://www.w3.org/1999/xlink" x="0px" y="0px"
	 viewBox="0 0 512 512" style="enable-background:new 0 0 512 512;" xml:space="preserve">
<path style="fill:#FECA57;" d="M164.753,348.179c-54.546-31.561-91.247-90.537-91.247-158.081
	C73.506,89.311,155.213,7.604,256,7.604s182.494,81.707,182.494,182.494c0,67.543-36.702,126.519-91.247,158.071v24.414H164.753
	V348.179z"/>
<path style="fill:#FF9F43;" d="M256,7.604c-5.123,0-10.193,0.222-15.21,0.636c93.671,7.731,167.285,86.194,167.285,181.859
	c0,97.787-91.247,128.121-91.247,147.932s0,34.552,0,34.552h30.419v-24.414c54.546-31.551,91.247-90.527,91.247-158.071
	C438.494,89.311,356.788,7.604,256,7.604z"/>
<path style="fill:#576574;" d="M215.446,484.117h81.109c0,11.204-18.158,20.277-40.554,20.277S215.446,495.321,215.446,484.117z"/>
<polygon style="fill:#CAD0D7;" points="164.753,372.582 164.753,412.64 164.753,443.056 164.753,463.84 185.03,484.117 
	215.446,484.117 296.554,484.117 326.97,484.117 347.247,463.84 347.247,433.931 347.247,403.515 347.247,372.582 "/>
<path style="fill:#A9B0BB;" d="M316.829,372.582v30.933v30.416c0,0,0,14.245,0,24.84s-20.277,25.346-20.277,25.346h0.003h30.416
	l20.277-20.277v-29.909v-30.416v-30.933H316.829z"/>
<path style="fill:#FF9FF3;" d="M357.386,205.306c0-12.704-6.681-23.846-16.718-30.112v-0.01c4.137-5.809,6.58-12.896,6.58-20.571
	c0-19.598-15.887-35.485-35.485-35.485c-3.609,0-7.097,0.547-10.392,1.551c-1.713-12.329-12.288-21.828-25.093-21.828
	c-14.001,0-20.277,11.355-20.277,25.346c0-13.991-6.276-25.346-20.277-25.346c-12.805,0-23.38,9.5-25.093,21.828
	c-3.295-1.004-6.783-1.551-10.392-1.551c-19.598,0-35.485,15.887-35.485,35.485c0,7.675,2.443,14.762,6.58,20.571v0.01
	c-10.037,6.266-16.719,17.408-16.719,30.112c0,12.582,6.56,23.643,16.445,29.939c0.01,0,0.01,0.01,0.02,0.01
	c-0.811,3.406-1.257,6.954-1.257,10.605c0,25.203,20.429,45.624,45.624,45.624h15.208v0.01c14.012,0,25.346-11.344,25.346-25.346
	c0,14.002,11.335,25.346,25.346,25.346v-0.01h15.208c25.194,0,45.624-20.42,45.624-45.624c0-3.651-0.446-7.199-1.257-10.605
	c0.01,0,0.01-0.01,0.021-0.01C350.826,228.949,357.386,217.888,357.386,205.306z"/>
<path style="fill:#F368E0;" d="M357.386,205.306c0-12.704-6.681-23.846-16.718-30.112v-0.01c4.137-5.809,6.58-12.896,6.58-20.571
	c0-19.598-15.887-35.485-35.485-35.485c-3.609,0-7.097,0.547-10.392,1.551c-1.713-12.329-12.288-21.828-25.093-21.828
	c-6.197,0-10.879,2.227-14.175,5.921c4.701,3.94,5.92,10.952,8.849,13.88c2.228,2.228,6.783,0.477,10.392,0.477
	c19.598,0,35.485,15.887,35.485,35.485c0,7.675-6.58,10.392-6.58,20.581c0,6.793,16.719,17.408,16.719,30.112
	c0,12.582-9.868,25.681-13.423,28.935c-3.556,3.255-1.784,7.968-1.784,11.619c0,22.228-15.893,40.726-36.928,44.786
	c2.079,0.551,4.261,0.848,6.515,0.848v-0.01h15.208c25.194,0,45.624-20.42,45.624-45.624c0-3.651-0.446-7.199-1.257-10.605
	c0.01,0,0.01-0.01,0.021-0.01C350.826,228.949,357.386,217.888,357.386,205.306z"/>
<path d="M431.154,116.097c-4.765-11.264-10.656-22.122-17.519-32.291c-6.803-10.057-14.61-19.528-23.216-28.124
	c-8.598-8.608-18.067-16.414-28.135-23.217c-10.159-6.864-21.027-12.764-32.292-17.53C306.561,5.029,281.661,0,255.99,0
	c-15.664,0-31.237,1.906-46.293,5.678c-14.62,3.66-28.804,9.084-42.156,16.12c-13.129,6.904-25.458,15.38-36.651,25.163
	c-11.152,9.753-21.159,20.804-29.747,32.849C89.9,95.565,81.181,112.851,75.199,131.202c-6.164,18.969-9.297,38.78-9.297,58.895
	c0,24.424,4.562,48.199,13.576,70.666c1.156,2.909,3.934,4.785,7.056,4.785c0.974,0,1.926-0.182,2.829-0.548
	c1.886-0.76,3.366-2.2,4.167-4.066c0.791-1.867,0.821-3.934,0.061-5.82c-8.284-20.673-12.481-42.552-12.481-65.019
	c0-18.523,2.879-36.762,8.557-54.191c5.485-16.86,13.515-32.758,23.856-47.266c7.918-11.092,17.134-21.261,27.384-30.233
	c10.301-9.013,21.646-16.799,33.711-23.157c12.288-6.479,25.336-11.457,38.79-14.823c13.849-3.467,28.175-5.22,42.592-5.22
	c23.623,0,46.526,4.623,68.079,13.738c10.351,4.38,20.348,9.804,29.696,16.12c9.257,6.255,17.967,13.444,25.894,21.361
	c7.909,7.928,15.097,16.637,21.352,25.894c6.316,9.348,11.751,19.344,16.13,29.696c9.114,21.555,13.738,44.459,13.738,68.081
	c0,15.866-2.119,31.581-6.306,46.729c-4.067,14.681-10.058,28.794-17.813,41.953c-15.27,25.906-37.094,47.583-63.118,62.694
	c-0.288,0.154-0.562,0.332-0.824,0.521c-0.024,0.017-0.047,0.035-0.07,0.053c-0.162,0.12-0.321,0.242-0.474,0.374
	c-0.067,0.059-0.132,0.12-0.197,0.179c-0.105,0.097-0.208,0.194-0.307,0.297c-0.09,0.092-0.175,0.19-0.261,0.286
	c-0.07,0.08-0.14,0.159-0.207,0.242c-0.093,0.117-0.18,0.235-0.267,0.357c-0.055,0.077-0.108,0.152-0.159,0.23
	c-0.083,0.126-0.16,0.257-0.236,0.387c-0.048,0.084-0.095,0.167-0.141,0.253c-0.067,0.129-0.129,0.261-0.19,0.394
	c-0.043,0.094-0.085,0.189-0.124,0.285c-0.055,0.134-0.103,0.27-0.15,0.408c-0.032,0.096-0.064,0.193-0.093,0.289
	c-0.018,0.061-0.042,0.12-0.059,0.181c-0.023,0.086-0.035,0.173-0.055,0.259c-0.023,0.101-0.046,0.202-0.065,0.304
	c-0.027,0.145-0.049,0.292-0.067,0.439c-0.013,0.102-0.025,0.204-0.033,0.307c-0.014,0.159-0.021,0.318-0.024,0.478
	c-0.001,0.06-0.009,0.118-0.009,0.178v16.81H172.354v-16.81c0-0.065-0.008-0.13-0.01-0.195c-0.004-0.15-0.01-0.301-0.022-0.452
	c-0.009-0.109-0.023-0.218-0.036-0.326c-0.018-0.141-0.039-0.279-0.064-0.419c-0.02-0.108-0.044-0.215-0.068-0.32
	c-0.019-0.083-0.031-0.167-0.053-0.249c-0.016-0.06-0.039-0.116-0.056-0.173c-0.03-0.104-0.065-0.208-0.1-0.31
	c-0.045-0.13-0.09-0.26-0.141-0.386c-0.043-0.104-0.087-0.207-0.134-0.308c-0.057-0.126-0.116-0.249-0.179-0.372
	c-0.049-0.093-0.1-0.184-0.152-0.275c-0.071-0.124-0.144-0.246-0.222-0.366c-0.056-0.085-0.115-0.167-0.174-0.25
	c-0.082-0.115-0.164-0.228-0.252-0.338c-0.071-0.089-0.147-0.174-0.221-0.261c-0.081-0.091-0.161-0.184-0.246-0.272
	c-0.103-0.106-0.212-0.208-0.32-0.309c-0.061-0.057-0.121-0.114-0.185-0.168c-0.156-0.135-0.318-0.262-0.486-0.383
	c-0.02-0.015-0.04-0.03-0.059-0.045c-0.266-0.191-0.54-0.368-0.83-0.524c-25.183-14.624-46.521-35.48-61.706-60.351
	c-1.399-2.281-3.822-3.64-6.499-3.64c-1.389,0-2.758,0.385-3.954,1.115c-1.734,1.054-2.95,2.726-3.427,4.704
	c-0.477,1.977-0.162,4.015,0.902,5.749c15.778,25.831,37.676,47.675,63.489,63.433v20.105v32.819l-2.914,0.146
	c-4.194,0.209-7.424,3.78-7.215,7.974c0.204,4.065,3.563,7.224,7.588,7.224c0.129,0,0.258-0.003,0.386-0.01l2.154-0.107v15.19
	l-2.914,0.146c-4.194,0.209-7.424,3.78-7.215,7.974c0.204,4.065,3.563,7.224,7.588,7.224c0.129,0,0.258-0.003,0.386-0.01
	l2.154-0.107v12.789c0,0.251,0.013,0.503,0.039,0.753c0.01,0.108,0.03,0.214,0.046,0.321c0.02,0.138,0.036,0.276,0.064,0.414
	c0.024,0.125,0.06,0.245,0.09,0.369c0.029,0.118,0.056,0.235,0.09,0.352c0.036,0.122,0.083,0.239,0.126,0.359
	c0.041,0.115,0.079,0.23,0.126,0.345c0.047,0.111,0.1,0.218,0.152,0.325c0.055,0.117,0.106,0.233,0.167,0.348
	c0.056,0.105,0.12,0.205,0.18,0.307c0.067,0.111,0.13,0.223,0.202,0.331c0.075,0.113,0.159,0.219,0.24,0.326
	c0.068,0.091,0.131,0.184,0.203,0.272c0.15,0.184,0.309,0.358,0.475,0.526c0.01,0.011,0.018,0.021,0.028,0.031l20.277,20.277
	c0.011,0.011,0.024,0.02,0.035,0.032c0.167,0.164,0.34,0.321,0.522,0.471c0.087,0.071,0.18,0.135,0.271,0.202
	c0.108,0.081,0.214,0.164,0.327,0.239c0.106,0.072,0.217,0.134,0.327,0.199c0.103,0.063,0.205,0.128,0.311,0.185
	c0.112,0.061,0.226,0.109,0.34,0.164c0.111,0.053,0.22,0.107,0.334,0.154c0.112,0.047,0.225,0.083,0.338,0.124
	c0.122,0.044,0.241,0.09,0.365,0.128c0.112,0.033,0.226,0.059,0.34,0.087c0.127,0.032,0.252,0.068,0.382,0.093
	c0.131,0.026,0.264,0.042,0.396,0.061c0.113,0.017,0.224,0.038,0.339,0.05c0.249,0.023,0.5,0.038,0.75,0.038h24.495
	c5.439,11.963,23.61,20.279,46.474,20.279c22.866,0,41.036-8.317,46.476-20.279h24.494c0.25,0,0.501-0.014,0.75-0.038
	c0.116-0.012,0.229-0.033,0.344-0.05c0.13-0.02,0.261-0.034,0.39-0.06c0.132-0.026,0.261-0.064,0.39-0.096
	c0.111-0.027,0.222-0.053,0.332-0.085c0.127-0.039,0.249-0.086,0.373-0.131c0.109-0.04,0.221-0.075,0.328-0.12
	c0.117-0.049,0.229-0.104,0.343-0.159c0.111-0.053,0.223-0.102,0.332-0.159c0.108-0.059,0.212-0.125,0.317-0.188
	c0.107-0.065,0.218-0.126,0.322-0.196c0.112-0.075,0.218-0.158,0.324-0.238c0.091-0.069,0.186-0.133,0.274-0.205
	c0.164-0.135,0.319-0.279,0.472-0.427c0.027-0.026,0.058-0.05,0.084-0.076l20.277-20.277c0.028-0.028,0.053-0.061,0.08-0.089
	c0.147-0.15,0.289-0.304,0.422-0.466c0.078-0.095,0.147-0.195,0.219-0.293c0.075-0.101,0.153-0.2,0.225-0.305
	c0.075-0.111,0.141-0.229,0.209-0.345c0.059-0.098,0.12-0.193,0.173-0.293c0.063-0.117,0.116-0.237,0.171-0.357
	c0.051-0.105,0.103-0.21,0.148-0.317c0.049-0.117,0.088-0.236,0.13-0.355c0.042-0.116,0.086-0.23,0.122-0.348
	c0.037-0.121,0.064-0.241,0.093-0.363c0.029-0.12,0.064-0.236,0.088-0.358c0.028-0.143,0.046-0.287,0.065-0.431
	c0.015-0.102,0.033-0.202,0.045-0.305c0.024-0.251,0.038-0.505,0.038-0.757v-22.671l2.915-0.146c4.194-0.209,7.423-3.78,7.214-7.974
	c-0.21-4.194-3.766-7.436-7.974-7.214l-2.154,0.107v-15.19l2.915-0.146c4.194-0.209,7.423-3.78,7.214-7.974
	c-0.21-4.193-3.766-7.447-7.974-7.214l-2.154,0.107v-22.933v-20.105c26.693-16.282,49.12-39.004,65.029-65.988
	c8.426-14.306,14.944-29.655,19.355-45.613c4.552-16.455,6.865-33.549,6.865-50.784C446.098,164.437,441.07,139.537,431.154,116.097
	z M255.999,496.792c-10.702,0-19.453-2.227-25.241-5.071h50.483C275.453,494.565,266.702,496.792,255.999,496.792z M339.643,460.69
	l-15.823,15.823H188.18l-15.823-15.823v-10.401l167.286-8.364V460.69z M339.643,426.698l-167.286,8.364v-15.19l167.286-8.364
	V426.698z M172.357,404.647v-24.454h167.286v16.09L172.357,404.647z"/>
<path d="M147.01,205.302c0,13.033,5.79,25.128,15.713,33.271c-0.336,2.421-0.505,4.858-0.505,7.289
	c0,29.35,23.877,53.229,53.226,53.229h15.169c0.013,0,0.025,0.002,0.04,0.002c10.182,0,19.298-4.643,25.346-11.922
	c6.049,7.278,15.165,11.922,25.346,11.922c0.013,0,0.025-0.002,0.04-0.002h15.168c29.349,0,53.228-23.878,53.228-53.229
	c0-2.431-0.169-4.868-0.505-7.289c9.923-8.142,15.713-20.238,15.713-33.271c0-12.449-5.257-24.006-14.346-32.107
	c2.768-5.767,4.207-12.077,4.207-18.582c0-23.759-19.329-43.088-43.089-43.088c-1.662,0-3.317,0.095-4.96,0.284
	c-4.952-12.135-16.934-20.561-30.525-20.561c-8.461,0-15.425,3.228-20.277,8.952c-4.852-5.724-11.818-8.952-20.277-8.952
	c-13.59,0-25.574,8.427-30.525,20.561c-1.642-0.19-3.298-0.284-4.96-0.284c-23.759,0-43.088,19.329-43.088,43.088
	c0,6.505,1.44,12.816,4.208,18.582C152.267,181.297,147.01,192.853,147.01,205.302z M276.277,106.456
	c6.835,0,12.901,3.965,15.845,9.808c-3.847,1.975-7.405,4.527-10.506,7.562c-3.001,2.938-3.053,7.752-0.115,10.753
	c1.489,1.522,3.46,2.285,5.434,2.285c1.918,0,3.838-0.722,5.318-2.171c3.17-3.101,7.069-5.428,11.274-6.727
	c0.021-0.007,0.045-0.01,0.067-0.017c2.644-0.807,5.392-1.217,8.168-1.217c15.373,0,27.881,12.507,27.881,27.88
	c0,3.667-0.711,7.24-2.078,10.566c-4.965-1.937-10.266-2.966-15.664-2.966c-4.2,0-7.604,3.404-7.604,7.604
	c0,4.2,3.404,7.604,7.604,7.604c5.199,0,10.263,1.44,14.655,4.159c0.027,0.018,0.054,0.039,0.081,0.057
	c8.23,5.139,13.145,13.986,13.145,23.664c0,6.164-2.013,11.998-5.601,16.754c-2.977-5.958-7.071-11.329-12.137-15.865
	c-3.13-2.801-7.936-2.535-10.738,0.593c-2.801,3.129-2.536,7.936,0.593,10.738c5.794,5.187,9.804,11.893,11.613,19.396
	c0.007,0.032,0.007,0.064,0.015,0.096c0.693,2.912,1.046,5.888,1.046,8.847c0,20.965-17.055,38.021-38.02,38.021h-15.208
	c-0.007,0-0.013,0.001-0.02,0.001c-9.775-0.011-17.722-7.965-17.722-17.741V124.218c0-0.007,0.001-0.013,0.001-0.02
	C263.605,108.761,271.545,106.456,276.277,106.456z M175.364,181.638c0.027-0.017,0.052-0.038,0.079-0.056
	c4.391-2.721,9.455-4.161,14.656-4.161c4.199,0,7.604-3.404,7.604-7.604c0-4.2-3.405-7.604-7.604-7.604
	c-5.399,0-10.699,1.027-15.664,2.966c-1.368-3.326-2.077-6.898-2.077-10.566c0-15.373,12.507-27.88,27.88-27.88
	c2.777,0,5.525,0.409,8.167,1.217c0.022,0.007,0.047,0.01,0.069,0.017c4.205,1.299,8.104,3.625,11.272,6.727
	c1.48,1.449,3.399,2.171,5.319,2.171c1.973,0,3.945-0.763,5.434-2.284c2.937-3.001,2.886-7.816-0.115-10.753
	c-3.1-3.035-6.659-5.586-10.506-7.562c2.943-5.843,9.009-9.808,15.844-9.808c4.733,0,12.673,2.304,12.673,17.741v141.944
	c0,9.777-7.949,17.73-17.723,17.741c-0.006,0-0.013-0.001-0.019-0.001h-15.208c-20.964,0-38.019-17.056-38.019-38.021
	c0-2.956,0.352-5.933,1.046-8.848c0.008-0.032,0.008-0.066,0.015-0.1c1.809-7.501,5.819-14.205,11.612-19.391
	c3.129-2.801,3.394-7.608,0.593-10.737c-2.801-3.131-7.609-3.396-10.737-0.594c-5.067,4.536-9.16,9.906-12.138,15.863
	c-3.588-4.755-5.601-10.589-5.601-16.753C162.218,195.624,167.132,186.778,175.364,181.638z"/>
<g>
</g>
<g>
</g>
<g>
</g>
<g>
</g>
<g>
</g>
<g>
</g>
<g>
</g>
<g>
</g>
<g>
</g>
<g>
</g>
<g>
</g>
<g>
</g>
<g>
</g>
<g>
</g>
<g>
</g>
</svg>
