<svg xmlns="http://www.w3.org/2000/svg" version="1.1" xmlns:xlink="http://www.w3.org/1999/xlink" width="512" height="512" x="0" y="0" viewBox="0 0 2.54 2.54" style="enable-background:new 0 0 512 512" xml:space="preserve" fill-rule="evenodd" class=""><g><circle r="1.252" fill="#23caff" transform="matrix(0 -1.015 -1.015 0 1.27 1.27)" opacity="1" data-original="#178feb"></circle><g fill="#fff"><path d="M1.867 1.141H.601a.068.068 0 0 0-.067.068v.122c0 .037.03.068.067.068h1.266c.037 0 .068-.03.068-.068V1.21a.068.068 0 0 0-.068-.068z" fill="#ffffff" opacity="1" data-original="#ffffff"></path><path d="m1.26.85.545.545c.026.026.07.026.095 0l.087-.087a.068.068 0 0 0 0-.096L1.442.667a.068.068 0 0 0-.096 0l-.087.087a.068.068 0 0 0 0 .095z" fill="#ffffff" opacity="1" data-original="#ffffff"></path><path d="m1.26 1.69.545-.545a.068.068 0 0 1 .095 0l.087.087a.068.068 0 0 1 0 .096l-.545.545a.068.068 0 0 1-.096 0l-.087-.087a.068.068 0 0 1 0-.095z" fill="#ffffff" opacity="1" data-original="#ffffff"></path></g></g></svg>