<?xml version="1.0" standalone="no"?>
<!DOCTYPE svg PUBLIC "-//W3C//DTD SVG 20010904//EN"
 "http://www.w3.org/TR/2001/REC-SVG-20010904/DTD/svg10.dtd">
<svg version="1.0" xmlns="http://www.w3.org/2000/svg"
 width="200.000000pt" height="100.000000pt" viewBox="0 0 200.000000 100.000000"
 preserveAspectRatio="xMidYMid meet">

<g transform="translate(0.000000,100.000000) scale(0.100000,-0.100000)"
fill="#000000" stroke="none">
<path d="M240 686 c-68 -24 -100 -41 -100 -52 0 -7 -7 -14 -15 -18 -8 -3 -15
-15 -15 -26 0 -11 -4 -20 -10 -20 -16 0 -12 -47 5 -54 9 -3 15 -18 15 -38 1
-76 67 -161 135 -174 96 -18 173 38 195 141 7 33 17 65 21 70 11 15 -34 104
-68 137 -25 23 -90 49 -118 47 -5 0 -26 -6 -45 -13z m179 -207 c1 -68 -15 -89
-55 -70 -33 15 -129 14 -154 -1 -28 -18 -52 9 -54 57 l-1 38 63 17 c35 10 79
29 99 43 l36 26 33 -27 c29 -24 33 -32 33 -83z m-89 -88 c0 -32 -71 -38 -84
-6 -4 12 4 15 39 15 25 0 45 -4 45 -9z"/>
<path d="M207 494 c-14 -15 -6 -34 14 -34 14 0 19 5 17 17 -3 18 -20 27 -31
17z"/>
<path d="M346 493 c-13 -14 -5 -33 14 -33 11 0 20 6 20 14 0 15 -24 28 -34 19z"/>
<path d="M692 578 c-35 -17 -65 -73 -53 -96 6 -11 18 -23 27 -26 21 -8 78 25
82 47 3 14 -4 17 -40 16 l-43 -2 39 -6 c38 -6 38 -6 18 -24 -27 -24 -66 -19
-70 9 -2 15 10 33 39 58 43 36 43 44 1 24z"/>
<path d="M1384 565 c-3 -8 -3 -18 0 -23 3 -5 0 -23 -6 -40 -10 -27 -10 -35 4
-48 36 -36 93 17 64 60 -10 16 -12 26 -4 34 6 6 7 15 4 21 -10 16 -56 13 -62
-4z m46 -4 c0 -12 -28 -22 -34 -12 -3 5 -3 11 1 15 9 9 33 7 33 -3z m10 -51
c8 -16 6 -24 -10 -40 -37 -37 -61 4 -27 48 13 17 25 15 37 -8z"/>
<path d="M1627 571 l42 -6 -34 -55 c-19 -30 -35 -64 -35 -75 0 -13 5 -9 18 15
10 19 30 56 46 83 l28 47 -54 -2 -53 -1 42 -6z"/>
<path d="M1496 530 c-8 -22 -13 -46 -10 -54 13 -35 74 -26 74 10 0 17 -32 18
-48 2 -18 -18 -16 23 3 48 17 22 19 34 6 34 -5 0 -16 -18 -25 -40z m54 -49 c0
-5 -7 -12 -16 -15 -24 -9 -28 -7 -14 9 14 17 30 20 30 6z"/>
<path d="M1000 540 c-13 -13 -20 -15 -21 -7 -1 6 -5 -4 -9 -23 -11 -46 4 -61
19 -18 6 18 22 41 34 50 12 10 16 18 10 18 -7 0 -22 -9 -33 -20z"/>
<path d="M785 526 c-27 -40 11 -86 58 -69 20 6 18 8 -12 13 -43 6 -50 23 -16
38 14 6 25 18 25 27 0 23 -38 18 -55 -9z m35 -1 c-7 -8 -17 -15 -22 -15 -6 0
-5 7 2 15 7 8 17 15 22 15 6 0 5 -7 -2 -15z"/>
<path d="M1061 531 c-24 -44 -4 -80 27 -49 9 9 12 0 12 -40 0 -54 -6 -61 -30
-39 -12 10 -12 9 -1 -5 35 -47 56 -6 44 87 -9 64 -32 85 -52 46z m15 -39 c-20
-20 -22 -1 -4 31 11 20 12 21 16 3 2 -10 -3 -26 -12 -34z"/>
<path d="M1156 528 c-21 -29 -20 -41 4 -63 14 -13 26 -15 47 -9 l28 8 -34 5
c-43 7 -50 24 -16 39 14 6 25 18 25 27 0 23 -37 18 -54 -7z m34 -3 c-7 -8 -17
-15 -22 -15 -6 0 -5 7 2 15 7 8 17 15 22 15 6 0 5 -7 -2 -15z"/>
<path d="M884 515 c-13 -20 -14 -28 -4 -40 30 -36 81 5 58 48 -13 24 -35 21
-54 -8z m41 -15 c0 -13 -6 -25 -12 -27 -16 -6 -27 21 -19 43 9 23 31 11 31
-16z"/>
<path d="M1827 526 c-2 -6 0 -40 3 -76 4 -36 8 -50 8 -31 1 19 11 44 22 56 12
12 18 29 15 37 -8 20 -42 30 -48 14z m29 -43 c-11 -11 -19 6 -11 24 8 17 8 17
12 0 3 -10 2 -21 -1 -24z"/>
<path d="M1721 513 c11 -19 11 -27 1 -43 -13 -22 -3 -27 15 -9 9 9 18 8 37 -5
32 -20 34 -11 4 14 -22 18 -23 18 -4 39 11 12 14 21 9 21 -6 0 -16 -7 -23 -15
-11 -14 -15 -14 -33 2 -19 18 -20 17 -6 -4z"/>
</g>
</svg>
