<?xml version="1.0" standalone="no"?>
<!DOCTYPE svg PUBLIC "-//W3C//DTD SVG 20010904//EN"
 "http://www.w3.org/TR/2001/REC-SVG-20010904/DTD/svg10.dtd">
<svg version="1.0" xmlns="http://www.w3.org/2000/svg"
 width="200.000000pt" height="100.000000pt" viewBox="0 0 200.000000 100.000000"
 preserveAspectRatio="xMidYMid meet">

<g transform="translate(0.000000,100.000000) scale(0.100000,-0.100000)"
fill="#000000" stroke="none">
<path d="M208 723 c-10 -2 -18 -9 -18 -14 0 -5 -6 -9 -13 -9 -20 0 -64 -50
-83 -95 -21 -51 -22 -131 0 -172 9 -18 16 -42 16 -54 0 -12 16 -36 35 -55 34
-32 36 -32 126 -32 73 0 98 4 125 20 31 18 39 29 35 51 -1 4 9 26 21 50 18 34
22 61 23 137 2 84 0 98 -19 117 -12 13 -27 23 -34 23 -6 0 -29 9 -49 20 -36
19 -118 26 -165 13z m240 -107 c-10 -10 -22 -15 -26 -11 -3 3 0 11 8 16 11 8
12 12 3 16 -7 2 -13 11 -13 19 0 12 4 12 24 -3 24 -18 24 -18 4 -37z m-111 -6
c21 -11 43 -20 50 -20 25 0 46 -48 40 -93 -10 -76 -94 -129 -181 -113 -82 15
-136 89 -118 159 7 28 14 33 51 39 24 4 57 16 74 27 41 25 40 25 84 1z m-230
-107 c-4 -17 -4 -17 -12 0 -4 9 -4 25 0 35 8 16 8 16 12 0 3 -10 3 -26 0 -35z
m354 0 c-9 -16 -10 -14 -11 12 0 21 3 26 11 18 8 -8 8 -16 0 -30z m-221 -148
c0 -9 -9 -15 -25 -15 -18 0 -23 4 -19 15 4 8 15 15 25 15 10 0 19 -7 19 -15z
m118 -3 c3 -9 -3 -13 -19 -10 -12 1 -24 9 -27 16 -3 9 3 13 19 10 12 -1 24 -9
27 -16z m-60 -7 c4 -9 21 -20 38 -24 21 -7 6 -9 -61 -9 -50 1 -77 3 -62 5 15
3 33 13 40 24 14 23 33 25 45 4z"/>
<path d="M210 550 c0 -5 7 -10 15 -10 8 0 15 5 15 10 0 6 -7 10 -15 10 -8 0
-15 -4 -15 -10z"/>
<path d="M316 552 c-3 -6 3 -12 15 -15 12 -3 19 -1 16 6 -5 15 -24 20 -31 9z"/>
<path d="M268 523 c6 -2 18 -2 25 0 6 3 1 5 -13 5 -14 0 -19 -2 -12 -5z"/>
<path d="M270 340 c0 -5 5 -10 11 -10 5 0 7 5 4 10 -3 6 -8 10 -11 10 -2 0 -4
-4 -4 -10z"/>
<path d="M1046 540 c9 -98 21 -111 16 -17 -2 39 -8 76 -13 82 -6 6 -7 -19 -3
-65z"/>
<path d="M778 539 l-3 -51 -34 47 c-20 28 -37 43 -42 38 -15 -15 -25 -118 -11
-109 7 4 12 25 12 47 0 21 3 39 8 39 4 0 21 -20 37 -45 17 -24 33 -45 38 -45
4 0 7 29 7 65 0 77 -8 86 -12 14z"/>
<path d="M1384 565 c-3 -8 -3 -18 0 -23 3 -5 0 -23 -6 -40 -10 -27 -10 -35 4
-48 36 -36 93 17 64 60 -10 16 -12 26 -4 34 6 6 7 15 4 21 -10 16 -56 13 -62
-4z m46 -4 c0 -12 -28 -22 -34 -12 -3 5 -3 11 1 15 9 9 33 7 33 -3z m10 -51
c8 -16 6 -24 -10 -40 -37 -37 -61 4 -27 48 13 17 25 15 37 -8z"/>
<path d="M1622 571 l47 -6 -34 -55 c-19 -30 -35 -64 -35 -75 0 -13 5 -9 18 15
10 19 30 56 46 83 l28 47 -59 -2 -58 -1 47 -6z"/>
<path d="M1496 530 c-8 -22 -13 -46 -10 -54 13 -35 74 -26 74 10 0 17 -32 18
-48 2 -18 -18 -16 23 3 48 17 22 19 34 6 34 -5 0 -16 -18 -25 -40z m54 -49 c0
-5 -7 -12 -16 -15 -24 -9 -28 -7 -14 9 14 17 30 20 30 6z"/>
<path d="M882 538 c-31 -31 -2 -99 35 -83 16 7 15 9 -7 14 -34 9 -36 54 -2 59
12 2 20 8 17 13 -8 13 -29 11 -43 -3z"/>
<path d="M1112 538 c-7 -7 -12 -25 -12 -40 0 -35 37 -57 66 -39 17 9 15 10
-13 11 -44 0 -48 13 -12 39 16 12 27 26 24 32 -9 13 -39 11 -53 -3z m28 -13
c-7 -8 -17 -15 -22 -15 -6 0 -5 7 2 15 7 8 17 15 22 15 6 0 5 -7 -2 -15z"/>
<path d="M960 526 c-18 -23 -8 -61 17 -64 30 -4 53 39 33 63 -16 19 -34 19
-50 1z m38 -32 c-4 -23 -26 -30 -34 -10 -8 20 15 51 29 37 5 -5 7 -17 5 -27z"/>
<path d="M1827 526 c-2 -6 0 -40 3 -76 4 -36 8 -50 8 -31 1 19 11 44 22 56 12
12 18 29 15 37 -8 20 -42 30 -48 14z m29 -43 c-11 -11 -19 6 -11 24 8 17 8 17
12 0 3 -10 2 -21 -1 -24z"/>
<path d="M820 503 c0 -16 5 -35 10 -43 7 -11 10 -4 10 28 0 23 -4 42 -10 42
-5 0 -10 -12 -10 -27z"/>
<path d="M1721 513 c11 -19 11 -27 1 -43 -13 -22 -3 -27 15 -9 9 9 18 8 37 -5
32 -20 34 -11 4 14 -22 18 -23 18 -4 39 11 12 14 21 9 21 -6 0 -16 -7 -23 -15
-11 -14 -15 -14 -33 2 -19 18 -20 17 -6 -4z"/>
</g>
</svg>
